<svg xmlns="http://www.w3.org/2000/svg" xmlns:xlink="http://www.w3.org/1999/xlink" width="500" zoomAndPan="magnify" viewBox="0 0 375 374.999991" height="500" preserveAspectRatio="xMidYMid meet" version="1.0"><defs><g/><clipPath id="22f71415e9"><path d="M 23.867188 23.867188 L 350.867188 23.867188 L 350.867188 350.867188 L 23.867188 350.867188 Z M 23.867188 23.867188 " clip-rule="nonzero"/></clipPath><clipPath id="3a73801500"><path d="M 164 245 L 229.65625 245 L 229.65625 302 L 164 302 Z M 164 245 " clip-rule="nonzero"/></clipPath></defs><rect x="-37.5" width="450" fill="#ffffff" y="-37.499999" height="449.999989" fill-opacity="1"/><rect x="-37.5" width="450" fill="#0a5732" y="-37.499999" height="449.999989" fill-opacity="1"/><g clip-path="url(#22f71415e9)"><path fill="#0a5732" d="M 351.125 187.5 C 351.125 277.867188 277.867188 351.125 187.5 351.125 C 97.132812 351.125 23.875 277.867188 23.875 187.5 C 23.875 97.128906 97.132812 23.875 187.5 23.875 C 277.867188 23.875 351.125 97.128906 351.125 187.5 " fill-opacity="1" fill-rule="nonzero"/></g><path fill="#ffffff" d="M 245.621094 135.773438 C 245.621094 167.988281 219.503906 194.105469 187.289062 194.105469 C 155.074219 194.105469 128.957031 167.988281 128.957031 135.773438 C 128.957031 103.554688 155.074219 77.441406 187.289062 77.441406 C 219.503906 77.441406 245.621094 103.554688 245.621094 135.773438 " fill-opacity="1" fill-rule="nonzero"/><path fill="#ffffff" d="M 187.289062 343.355469 C 228.566406 343.355469 266.269531 328.066406 295.054688 302.84375 C 286.121094 244.496094 259.808594 204.003906 187.289062 204.003906 C 116.808594 204.003906 89.527344 244.667969 79.941406 303.21875 C 108.675781 328.214844 146.210938 343.355469 187.289062 343.355469 " fill-opacity="1" fill-rule="nonzero"/><g clip-path="url(#3a73801500)"><path fill="#0a5732" d="M 228.578125 285.761719 C 227.933594 286.316406 227.253906 286.835938 226.566406 287.332031 C 224.882812 288.503906 223.238281 289.785156 221.328125 290.609375 C 217.847656 292.0625 213.855469 292.003906 210.285156 290.882812 C 209.980469 277.613281 195.957031 278.660156 191.007812 265.585938 C 190.980469 265.546875 190.964844 265.507812 190.953125 265.46875 C 191.464844 264.613281 191.796875 263.625 191.914062 262.589844 C 192.511719 258.902344 192.410156 254.941406 190.867188 251.488281 C 189.84375 249.296875 188.265625 247.222656 186.183594 245.953125 C 183.609375 244.585938 180.484375 245.234375 177.867188 246.164062 C 175.945312 247.011719 174.535156 248.839844 172.394531 249.21875 C 171.648438 249.394531 170.914062 249.351562 170.179688 249.304688 C 169.386719 249.253906 168.589844 249.203125 167.773438 249.433594 C 165.246094 250.183594 164.4375 253.28125 165.355469 255.542969 C 166.011719 257.28125 167.160156 258.828125 168.457031 260.152344 C 171.007812 262.664062 174.851562 263.699219 178.527344 263.96875 C 177.929688 264.703125 177.375 265.480469 176.898438 266.296875 C 174.996094 269.503906 174.28125 273.289062 174.457031 276.988281 C 174.378906 281.09375 174.933594 286.859375 172.96875 290.511719 C 171.671875 292.214844 169.25 292.046875 167.394531 292.710938 C 164.632812 293.335938 163.660156 296.683594 165.992188 298.457031 C 167.574219 299.71875 169.664062 299.664062 171.582031 299.492188 C 175.511719 299.175781 179.035156 297.042969 181.832031 294.367188 C 183.347656 296.632812 185.539062 298.453125 187.910156 299.765625 C 187.96875 299.796875 188.03125 299.808594 188.09375 299.808594 C 188.285156 299.808594 188.476562 299.683594 188.550781 299.507812 C 188.71875 299.089844 188.347656 298.894531 188.035156 298.699219 C 187.644531 298.425781 187.207031 298.089844 186.78125 297.75 C 185.242188 296.523438 183.742188 295.195312 182.722656 293.488281 C 185.011719 291.058594 186.746094 287.945312 187.078125 284.585938 C 187.40625 281.882812 185.636719 277.40625 182.28125 279.167969 C 180.605469 280.152344 179.890625 282.128906 179.511719 283.9375 C 178.835938 287.054688 179.445312 290.414062 181.085938 293.140625 C 177.71875 296.527344 172.792969 299.007812 167.945312 297.914062 C 166.527344 297.550781 165.371094 295.867188 166.640625 294.675781 C 167.664062 293.886719 169.042969 293.828125 170.253906 293.503906 C 173.945312 292.890625 175.070312 290.582031 175.570312 287.144531 C 176.421875 282.007812 175.402344 276.75 176.324219 271.628906 C 176.726562 269.601562 177.496094 267.644531 178.660156 265.933594 C 178.90625 265.367188 179.929688 264.675781 179.769531 264.03125 C 180.464844 264.054688 181.144531 264.046875 181.800781 264.023438 C 182.40625 266.085938 183.894531 268.292969 186.261719 268.324219 C 187.960938 268.257812 189.367188 267.476562 190.359375 266.296875 C 190.589844 267.085938 191.046875 267.855469 191.347656 268.570312 C 196.070312 279.136719 208.828125 279.039062 209.121094 290.484375 C 205.566406 289.203125 202.253906 287.214844 198.566406 286.324219 C 196.9375 286.144531 195.179688 286.257812 193.757812 287.144531 C 192.054688 288.113281 190.335938 289.511719 190.101562 291.582031 C 189.742188 293.105469 190.167969 294.664062 190.667969 296.105469 C 191.8125 299.335938 194.878906 301.84375 198.351562 301.953125 C 198.488281 301.960938 198.621094 301.964844 198.757812 301.964844 C 200.734375 301.964844 202.652344 301.246094 204.386719 300.324219 C 207.488281 298.746094 209.886719 295.746094 210.230469 292.21875 C 213.84375 293.257812 217.832031 293.230469 221.363281 291.875 C 224.269531 290.628906 226.824219 288.644531 229.285156 286.683594 C 229.894531 286.230469 229.15625 285.292969 228.574219 285.761719 Z M 180.921875 284.226562 C 181.28125 282.695312 181.835938 280.574219 183.605469 280.207031 C 185.074219 280.234375 185.480469 282.113281 185.613281 283.292969 C 185.777344 286.59375 184.214844 289.816406 182.007812 292.199219 C 180.847656 289.738281 180.386719 286.90625 180.921875 284.222656 Z M 190.820312 259.808594 C 190.601562 262.855469 190.125 266.296875 186.53125 266.894531 C 183.199219 266.792969 182.808594 262.378906 182.34375 259.847656 C 182.160156 259.15625 182.460938 257.746094 181.4375 257.746094 C 181.417969 257.746094 181.402344 257.746094 181.386719 257.746094 C 180.300781 257.957031 181.050781 259.683594 181.027344 260.453125 C 181.171875 261.429688 181.351562 262.402344 181.605469 263.351562 C 177.546875 263.183594 172.859375 262.535156 169.675781 259.808594 C 167.90625 258.066406 166.050781 255.8125 166.097656 253.195312 C 166.164062 251.964844 166.992188 250.695312 168.257812 250.460938 C 168.921875 250.371094 169.597656 250.414062 170.269531 250.453125 C 171.246094 250.507812 172.222656 250.566406 173.171875 250.242188 C 175.039062 249.773438 176.40625 248.351562 178.0625 247.464844 C 180.148438 246.609375 182.625 246.132812 184.816406 246.855469 C 186.503906 247.519531 187.621094 248.996094 188.707031 250.398438 C 190.542969 253.152344 191.0625 256.554688 190.820312 259.808594 Z M 199.375 300.472656 C 196.472656 300.695312 193.660156 298.949219 192.445312 296.328125 C 191.714844 294.726562 191.214844 292.894531 191.78125 291.171875 C 192.191406 290.011719 193.207031 289.25 194.191406 288.582031 C 195.132812 287.898438 196.285156 287.625 197.4375 287.625 C 197.808594 287.625 198.179688 287.652344 198.546875 287.707031 C 202.207031 288.671875 205.527344 290.617188 209.097656 291.855469 C 208.683594 296.753906 203.972656 300 199.375 300.472656 Z M 199.375 300.472656 " fill-opacity="1" fill-rule="nonzero"/></g><g fill="#0a5732" fill-opacity="1"><g transform="translate(113.929049, 311.924452)"><g><path d="M 14.328125 -3.578125 L 14.96875 -3.265625 L 7.59375 3.90625 L 7.375 3.796875 L 7.96875 -2.421875 L 3.5 1.9375 L 3.28125 1.828125 L 4.21875 -8.4375 L 5.625 -7.765625 L 4.53125 0.28125 L 8.046875 -3.3125 L 8.3125 -6.46875 L 9.71875 -5.78125 L 8.640625 2.25 Z M 14.328125 -3.578125 "/></g></g></g><g fill="#0a5732" fill-opacity="1"><g transform="translate(128.08802, 318.523078)"><g><path d="M 8.578125 -7.046875 C 9.742188 -6.617188 10.5625 -5.878906 11.03125 -4.828125 C 11.507812 -3.785156 11.492188 -2.585938 10.984375 -1.234375 C 10.660156 -0.359375 10.222656 0.34375 9.671875 0.875 C 9.128906 1.414062 8.546875 1.773438 7.921875 1.953125 C 6.703125 2.285156 5.515625 2.238281 4.359375 1.8125 C 3.210938 1.382812 2.40625 0.644531 1.9375 -0.40625 C 1.476562 -1.457031 1.503906 -2.660156 2.015625 -4.015625 C 2.273438 -4.710938 2.609375 -5.304688 3.015625 -5.796875 C 3.429688 -6.296875 3.867188 -6.660156 4.328125 -6.890625 C 4.785156 -7.117188 5.273438 -7.28125 5.796875 -7.375 C 6.734375 -7.5 7.660156 -7.390625 8.578125 -7.046875 Z M 3.09375 -0.578125 C 3.1875 -0.0976562 3.390625 0.320312 3.703125 0.6875 C 4.015625 1.050781 4.425781 1.328125 4.9375 1.515625 C 5.457031 1.710938 5.960938 1.757812 6.453125 1.65625 C 6.953125 1.550781 7.390625 1.328125 7.765625 0.984375 C 8.523438 0.316406 9.085938 -0.492188 9.453125 -1.453125 C 9.890625 -2.640625 10.007812 -3.6875 9.8125 -4.59375 C 9.59375 -5.601562 8.878906 -6.332031 7.671875 -6.78125 C 6.679688 -6.789062 5.828125 -6.507812 5.109375 -5.9375 C 4.390625 -5.363281 3.859375 -4.609375 3.515625 -3.671875 C 3.085938 -2.535156 2.945312 -1.503906 3.09375 -0.578125 Z M 3.09375 -0.578125 "/></g></g></g><g fill="#0a5732" fill-opacity="1"><g transform="translate(140.997687, 323.187064)"><g><path d="M 7.953125 -7.75 C 9.148438 -7.414062 10.023438 -6.75 10.578125 -5.75 C 11.140625 -4.757812 11.226562 -3.566406 10.84375 -2.171875 C 10.59375 -1.285156 10.21875 -0.546875 9.71875 0.046875 C 9.21875 0.640625 8.664062 1.046875 8.0625 1.265625 C 6.882812 1.710938 5.703125 1.769531 4.515625 1.4375 C 3.328125 1.113281 2.457031 0.445312 1.90625 -0.5625 C 1.351562 -1.582031 1.273438 -2.789062 1.671875 -4.1875 C 1.867188 -4.90625 2.148438 -5.523438 2.515625 -6.046875 C 2.878906 -6.578125 3.28125 -6.976562 3.71875 -7.25 C 4.164062 -7.519531 4.640625 -7.71875 5.140625 -7.84375 C 6.066406 -8.039062 7.003906 -8.007812 7.953125 -7.75 Z M 3.046875 -0.84375 C 3.171875 -0.375 3.40625 0.03125 3.75 0.375 C 4.09375 0.71875 4.523438 0.960938 5.046875 1.109375 C 5.578125 1.253906 6.082031 1.25 6.5625 1.09375 C 7.050781 0.945312 7.472656 0.6875 7.828125 0.3125 C 8.523438 -0.425781 9.007812 -1.285156 9.28125 -2.265625 C 9.625 -3.492188 9.660156 -4.546875 9.390625 -5.421875 C 9.078125 -6.398438 8.300781 -7.0625 7.0625 -7.40625 C 6.082031 -7.34375 5.253906 -6.992188 4.578125 -6.359375 C 3.910156 -5.734375 3.441406 -4.9375 3.171875 -3.96875 C 2.847656 -2.800781 2.804688 -1.757812 3.046875 -0.84375 Z M 3.046875 -0.84375 "/></g></g></g><g fill="#0a5732" fill-opacity="1"><g transform="translate(154.217833, 326.673278)"><g><path d="M 3.640625 -4.59375 L 6.59375 -4.015625 L 6.5 -3.46875 L 3.546875 -4.046875 L 2.625 0.53125 L 1.25 0.25 L 3.09375 -9 L 8.5625 -7.90625 L 8.375 -6.96875 L 5.890625 -7.9375 C 5.429688 -8.03125 4.910156 -8.046875 4.328125 -7.984375 Z M 3.640625 -4.59375 "/></g></g></g><g fill="#0a5732" fill-opacity="1"><g transform="translate(164.139888, 328.524368)"><g/></g></g><g fill="#0a5732" fill-opacity="1"><g transform="translate(170.932888, 329.528678)"><g><path d="M 3.53125 0.46875 C 2.863281 0.414062 2.25 0.1875 1.6875 -0.21875 C 1.382812 -0.414062 1.144531 -0.703125 0.96875 -1.078125 C 0.800781 -1.453125 0.738281 -1.875 0.78125 -2.34375 C 0.832031 -2.96875 1.117188 -3.492188 1.640625 -3.921875 C 2.160156 -4.359375 2.910156 -4.617188 3.890625 -4.703125 C 3.585938 -5.535156 3.460938 -6.289062 3.515625 -6.96875 C 3.546875 -7.363281 3.707031 -7.8125 4 -8.3125 C 4.15625 -8.601562 4.410156 -8.832031 4.765625 -9 C 5.128906 -9.175781 5.488281 -9.25 5.84375 -9.21875 C 6.207031 -9.195312 6.59375 -9.128906 7 -9.015625 C 7.40625 -8.910156 7.707031 -8.800781 7.90625 -8.6875 L 7.703125 -7.8125 C 7.128906 -8.3125 6.394531 -8.597656 5.5 -8.671875 C 5.019531 -8.398438 4.75 -7.882812 4.6875 -7.125 C 4.632812 -6.375 4.800781 -5.488281 5.1875 -4.46875 C 5.570312 -3.457031 6.128906 -2.53125 6.859375 -1.6875 C 7.234375 -2.195312 7.640625 -2.992188 8.078125 -4.078125 C 7.835938 -4.097656 7.664062 -4.117188 7.5625 -4.140625 L 7.59375 -4.59375 C 8.539062 -4.539062 9.347656 -4.582031 10.015625 -4.71875 L 9.734375 -4.015625 C 9.554688 -3.992188 9.222656 -3.992188 8.734375 -4.015625 C 8.265625 -2.890625 7.757812 -1.988281 7.21875 -1.3125 C 8.21875 -0.269531 9.285156 0.289062 10.421875 0.375 L 9.78125 0.765625 C 8.65625 0.679688 7.597656 0.210938 6.609375 -0.640625 C 5.710938 0.179688 4.6875 0.550781 3.53125 0.46875 Z M 4 -0.171875 C 4.820312 -0.109375 5.570312 -0.375 6.25 -0.96875 C 5.300781 -1.875 4.566406 -2.957031 4.046875 -4.21875 C 3.378906 -4.09375 2.882812 -3.84375 2.5625 -3.46875 C 2.238281 -3.101562 2.0625 -2.695312 2.03125 -2.25 C 1.976562 -1.59375 2.132812 -1.09375 2.5 -0.75 C 2.875 -0.414062 3.375 -0.222656 4 -0.171875 Z M 4 -0.171875 "/></g></g></g><g fill="#0a5732" fill-opacity="1"><g transform="translate(185.294027, 330.419961)"><g/></g></g><g fill="#0a5732" fill-opacity="1"><g transform="translate(192.177661, 330.537265)"><g><path d="M 10.796875 -10.078125 L 11.5 -10.125 L 8.53125 -0.28125 L 8.296875 -0.265625 L 5.78125 -5.984375 L 4 -0.015625 L 3.765625 0 L -0.40625 -9.4375 L 1.15625 -9.515625 L 4.109375 -1.96875 L 5.421875 -6.796875 L 4.125 -9.6875 L 5.6875 -9.78125 L 8.65625 -2.21875 Z M 10.796875 -10.078125 "/></g></g></g><g fill="#0a5732" fill-opacity="1"><g transform="translate(207.736722, 329.416354)"><g><path d="M 0.140625 -0.015625 L 2.921875 -10.1875 L 3.140625 -10.234375 L 8.734375 -1.28125 L 7.203125 -1.046875 L 5.765625 -3.421875 L 1.578125 -2.8125 L 0.890625 -0.125 Z M 1.71875 -3.390625 L 5.46875 -3.9375 L 2.921875 -8.25 Z M 1.71875 -3.390625 "/></g></g></g><g fill="#0a5732" fill-opacity="1"><g transform="translate(219.917768, 327.516729)"><g><path d="M 8.265625 -1.71875 L 8.046875 -1.671875 L 0.21875 -7.90625 L 0.15625 -7.890625 L 1.859375 -0.421875 L 1.25 -0.28125 L -0.84375 -9.484375 L 0.1875 -9.71875 L 7.015625 -4.25 L 7.046875 -4.25 L 5.53125 -10.9375 L 6.140625 -11.078125 Z M 8.265625 -1.71875 "/></g></g></g><g fill="#0a5732" fill-opacity="1"><g transform="translate(232.673788, 324.469226)"><g><path d="M 1.21875 -0.390625 L -1.640625 -9.390625 L 0.9375 -10.203125 C 2 -10.546875 3.035156 -10.628906 4.046875 -10.453125 C 4.585938 -10.359375 5.085938 -10.1875 5.546875 -9.9375 C 6.003906 -9.695312 6.421875 -9.332031 6.796875 -8.84375 C 7.179688 -8.363281 7.476562 -7.796875 7.6875 -7.140625 C 8 -6.171875 8.019531 -5.273438 7.75 -4.453125 C 7.25 -2.960938 6.015625 -1.90625 4.046875 -1.28125 Z M 3.640625 -1.671875 C 4.796875 -2.035156 5.609375 -2.664062 6.078125 -3.5625 C 6.554688 -4.457031 6.585938 -5.5625 6.171875 -6.875 C 5.847656 -7.894531 5.296875 -8.675781 4.515625 -9.21875 C 3.734375 -9.769531 2.863281 -10.023438 1.90625 -9.984375 C 1.125 -9.734375 0.472656 -9.414062 -0.046875 -9.03125 L 2.375 -1.390625 C 2.695312 -1.410156 3.117188 -1.503906 3.640625 -1.671875 Z M 3.640625 -1.671875 "/></g></g></g><g fill="#0a5732" fill-opacity="1"><g transform="translate(245.435574, 320.241004)"><g><path d="M 1.1875 -0.484375 L -2.359375 -9.234375 L 2.9375 -11.375 L 3.171875 -10.4375 L 0.53125 -9.859375 C 0.113281 -9.679688 -0.320312 -9.410156 -0.78125 -9.046875 L 0.53125 -5.84375 L 3.453125 -7.03125 L 3.65625 -6.515625 L 0.734375 -5.328125 L 2.296875 -1.484375 L 6.21875 -3.546875 L 6.4375 -2.609375 Z M 1.1875 -0.484375 "/></g></g></g><g fill="#0a5732" fill-opacity="1"><g transform="translate(255.91604, 315.886904)"><g><path d="M 0.40625 -5.234375 L 2.40625 -1.1875 L 1.15625 -0.5625 L -3.03125 -9.03125 L -0.28125 -10.40625 C 0.59375 -10.832031 1.394531 -10.988281 2.125 -10.875 C 2.863281 -10.757812 3.382812 -10.390625 3.6875 -9.765625 C 4 -9.140625 4.023438 -8.535156 3.765625 -7.953125 C 3.515625 -7.367188 3.046875 -6.828125 2.359375 -6.328125 L 7.84375 -3.875 L 6.453125 -2.953125 L 1.390625 -5.71875 Z M 0.21875 -5.609375 L 1.03125 -6.015625 C 2.5625 -6.773438 3.023438 -7.765625 2.421875 -8.984375 C 2.328125 -9.179688 2.164062 -9.382812 1.9375 -9.59375 C 1.488281 -10.019531 0.898438 -10.164062 0.171875 -10.03125 C -0.410156 -9.75 -0.945312 -9.394531 -1.4375 -8.96875 Z M 0.21875 -5.609375 "/></g></g></g></svg>