<svg xmlns="http://www.w3.org/2000/svg" xmlns:xlink="http://www.w3.org/1999/xlink" width="500" zoomAndPan="magnify" viewBox="0 0 375 374.999991" height="500" preserveAspectRatio="xMidYMid meet" version="1.0"><defs><clipPath id="9fb08fecdf"><path d="M 44.570312 44.570312 L 330.320312 44.570312 L 330.320312 330.320312 L 44.570312 330.320312 Z M 44.570312 44.570312 " clip-rule="nonzero"/></clipPath></defs><rect x="-37.5" width="450" fill="#ffffff" y="-37.499999" height="449.999989" fill-opacity="1"/><rect x="-37.5" width="450" fill="#0a5732" y="-37.499999" height="449.999989" fill-opacity="1"/><g clip-path="url(#9fb08fecdf)"><path fill="#0a5732" d="M 330.425781 187.5 C 330.425781 266.4375 266.4375 330.425781 187.5 330.425781 C 108.566406 330.425781 44.578125 266.4375 44.578125 187.5 C 44.578125 108.566406 108.566406 44.578125 187.5 44.578125 C 266.4375 44.578125 330.425781 108.566406 330.425781 187.5 " fill-opacity="1" fill-rule="nonzero"/></g><path fill="#ffffff" d="M 238.273438 142.320312 C 238.273438 170.460938 215.457031 193.273438 187.320312 193.273438 C 159.179688 193.273438 136.367188 170.460938 136.367188 142.320312 C 136.367188 114.179688 159.179688 91.367188 187.320312 91.367188 C 215.457031 91.367188 238.273438 114.179688 238.273438 142.320312 " fill-opacity="1" fill-rule="nonzero"/><path fill="#ffffff" d="M 187.316406 323.640625 C 223.375 323.640625 256.304688 310.285156 281.449219 288.253906 C 273.644531 237.289062 250.664062 201.917969 187.316406 201.917969 C 125.753906 201.917969 101.921875 237.4375 93.550781 288.582031 C 118.648438 310.417969 151.4375 323.640625 187.316406 323.640625 " fill-opacity="1" fill-rule="nonzero"/></svg>