<svg xmlns="http://www.w3.org/2000/svg" xmlns:xlink="http://www.w3.org/1999/xlink" width="500" zoomAndPan="magnify" viewBox="0 0 375 374.999991" height="500" preserveAspectRatio="xMidYMid meet" version="1.0"><defs><g/><clipPath id="f2d5a581d0"><path d="M 97.484375 60.183594 L 277.484375 60.183594 L 277.484375 240.183594 L 97.484375 240.183594 Z M 97.484375 60.183594 " clip-rule="nonzero"/></clipPath><clipPath id="e2c41ab795"><path d="M 138.882812 108.589844 L 236.382812 108.589844 L 236.382812 185.089844 L 138.882812 185.089844 Z M 138.882812 108.589844 " clip-rule="nonzero"/></clipPath></defs><rect x="-37.5" width="450" fill="#ffffff" y="-37.499999" height="449.999989" fill-opacity="1"/><rect x="-37.5" width="450" fill="#0a5732" y="-37.499999" height="449.999989" fill-opacity="1"/><g clip-path="url(#f2d5a581d0)"><path fill="#ffffff" d="M 187.453125 240.183594 C 137.867188 240.183594 97.484375 199.796875 97.484375 150.152344 C 97.484375 100.507812 137.867188 60.183594 187.453125 60.183594 C 237.035156 60.183594 277.421875 100.570312 277.421875 150.152344 C 277.484375 199.796875 237.097656 240.183594 187.453125 240.183594 Z M 187.453125 61.707031 C 138.660156 61.707031 99.003906 101.359375 99.003906 150.152344 C 99.003906 198.945312 138.722656 238.660156 187.453125 238.660156 C 236.183594 238.660156 275.960938 198.945312 275.960938 150.152344 C 275.960938 101.359375 236.246094 61.707031 187.453125 61.707031 Z M 187.453125 61.707031 " fill-opacity="1" fill-rule="nonzero"/></g><g fill="#ffffff" fill-opacity="1"><g transform="translate(127.951531, 116.145248)"><g><path d="M -1.21875 -14.71875 L -0.8125 -15.296875 L 5.0625 -6.859375 L 4.921875 -6.671875 L -1.109375 -8.25 L 2.453125 -3.140625 L 2.328125 -2.953125 L -7.65625 -5.515625 L -6.765625 -6.796875 L 1 -4.421875 L -1.96875 -8.46875 L -5.046875 -9.25 L -4.15625 -10.53125 L 3.625 -8.171875 Z M -1.21875 -14.71875 "/></g></g></g><g fill="#ffffff" fill-opacity="1"><g transform="translate(136.403918, 104.585396)"><g><path d="M -2.625 -10.796875 C -1.726562 -11.648438 -0.710938 -12.0625 0.421875 -12.03125 C 1.566406 -12.007812 2.644531 -11.476562 3.65625 -10.4375 C 4.289062 -9.769531 4.734375 -9.070312 4.984375 -8.34375 C 5.242188 -7.613281 5.316406 -6.925781 5.203125 -6.28125 C 4.984375 -5.039062 4.429688 -3.992188 3.546875 -3.140625 C 2.660156 -2.296875 1.640625 -1.890625 0.484375 -1.921875 C -0.671875 -1.960938 -1.75 -2.503906 -2.75 -3.546875 C -3.269531 -4.085938 -3.660156 -4.648438 -3.921875 -5.234375 C -4.179688 -5.828125 -4.316406 -6.378906 -4.328125 -6.890625 C -4.347656 -7.410156 -4.28125 -7.925781 -4.125 -8.4375 C -3.832031 -9.332031 -3.332031 -10.117188 -2.625 -10.796875 Z M 0.828125 -3.046875 C 1.296875 -2.910156 1.765625 -2.90625 2.234375 -3.03125 C 2.703125 -3.15625 3.128906 -3.40625 3.515625 -3.78125 C 3.910156 -4.164062 4.164062 -4.601562 4.28125 -5.09375 C 4.40625 -5.59375 4.394531 -6.085938 4.25 -6.578125 C 3.976562 -7.554688 3.488281 -8.414062 2.78125 -9.15625 C 1.90625 -10.070312 1.019531 -10.628906 0.125 -10.828125 C -0.875 -11.066406 -1.84375 -10.738281 -2.78125 -9.84375 C -3.226562 -8.976562 -3.347656 -8.09375 -3.140625 -7.1875 C -2.929688 -6.289062 -2.484375 -5.484375 -1.796875 -4.765625 C -0.960938 -3.890625 -0.0859375 -3.316406 0.828125 -3.046875 Z M 0.828125 -3.046875 "/></g></g></g><g fill="#ffffff" fill-opacity="1"><g transform="translate(145.572963, 96.070946)"><g><path d="M -0.625 -11.09375 C 0.414062 -11.769531 1.492188 -11.988281 2.609375 -11.75 C 3.734375 -11.519531 4.691406 -10.796875 5.484375 -9.578125 C 5.992188 -8.804688 6.304688 -8.039062 6.421875 -7.28125 C 6.546875 -6.519531 6.492188 -5.835938 6.265625 -5.234375 C 5.816406 -4.054688 5.078125 -3.128906 4.046875 -2.453125 C 3.023438 -1.785156 1.953125 -1.570312 0.828125 -1.8125 C -0.296875 -2.0625 -1.253906 -2.789062 -2.046875 -4 C -2.460938 -4.625 -2.742188 -5.25 -2.890625 -5.875 C -3.046875 -6.5 -3.082031 -7.0625 -3 -7.5625 C -2.914062 -8.070312 -2.753906 -8.5625 -2.515625 -9.03125 C -2.066406 -9.863281 -1.4375 -10.550781 -0.625 -11.09375 Z M 1.375 -2.84375 C 1.8125 -2.625 2.269531 -2.535156 2.75 -2.578125 C 3.226562 -2.617188 3.695312 -2.785156 4.15625 -3.078125 C 4.613281 -3.378906 4.941406 -3.757812 5.140625 -4.21875 C 5.347656 -4.6875 5.429688 -5.175781 5.390625 -5.6875 C 5.296875 -6.695312 4.96875 -7.628906 4.40625 -8.484375 C 3.707031 -9.546875 2.9375 -10.265625 2.09375 -10.640625 C 1.15625 -11.046875 0.144531 -10.894531 -0.9375 -10.1875 C -1.53125 -9.40625 -1.804688 -8.550781 -1.765625 -7.625 C -1.734375 -6.707031 -1.441406 -5.832031 -0.890625 -5 C -0.222656 -3.988281 0.53125 -3.269531 1.375 -2.84375 Z M 1.375 -2.84375 "/></g></g></g><g fill="#ffffff" fill-opacity="1"><g transform="translate(156.280485, 89.419529)"><g><path d="M 0.296875 -5.859375 L 3.046875 -7.09375 L 3.28125 -6.59375 L 0.53125 -5.359375 L 2.4375 -1.09375 L 1.171875 -0.53125 L -2.6875 -9.140625 L 2.390625 -11.421875 L 2.78125 -10.546875 L 0.1875 -9.890625 C -0.238281 -9.691406 -0.675781 -9.398438 -1.125 -9.015625 Z M 0.296875 -5.859375 "/></g></g></g><g fill="#ffffff" fill-opacity="1"><g transform="translate(164.889777, 85.810375)"><g/></g></g><g fill="#ffffff" fill-opacity="1"><g transform="translate(170.512141, 83.909859)"><g><path d="M 3.546875 -0.40625 C 2.890625 -0.289062 2.234375 -0.363281 1.578125 -0.625 C 1.242188 -0.738281 0.945312 -0.953125 0.6875 -1.265625 C 0.425781 -1.585938 0.257812 -1.984375 0.1875 -2.453125 C 0.0703125 -3.078125 0.210938 -3.660156 0.609375 -4.203125 C 1.015625 -4.753906 1.691406 -5.191406 2.640625 -5.515625 C 2.140625 -6.242188 1.832031 -6.945312 1.71875 -7.625 C 1.65625 -8.019531 1.703125 -8.492188 1.859375 -9.046875 C 1.941406 -9.367188 2.132812 -9.65625 2.4375 -9.90625 C 2.75 -10.15625 3.082031 -10.304688 3.4375 -10.359375 C 3.789062 -10.421875 4.175781 -10.445312 4.59375 -10.4375 C 5.019531 -10.4375 5.34375 -10.410156 5.5625 -10.359375 L 5.578125 -9.4375 C 4.890625 -9.800781 4.109375 -9.90625 3.234375 -9.75 C 2.828125 -9.375 2.6875 -8.8125 2.8125 -8.0625 C 2.9375 -7.3125 3.3125 -6.492188 3.9375 -5.609375 C 4.5625 -4.722656 5.328125 -3.953125 6.234375 -3.296875 C 6.484375 -3.890625 6.6875 -4.765625 6.84375 -5.921875 C 6.59375 -5.878906 6.421875 -5.859375 6.328125 -5.859375 L 6.25 -6.296875 C 7.1875 -6.472656 7.960938 -6.710938 8.578125 -7.015625 L 8.46875 -6.265625 C 8.300781 -6.203125 7.976562 -6.125 7.5 -6.03125 C 7.320312 -4.8125 7.050781 -3.804688 6.6875 -3.015625 C 7.90625 -2.265625 9.078125 -1.984375 10.203125 -2.171875 L 9.671875 -1.640625 C 8.566406 -1.453125 7.425781 -1.648438 6.25 -2.234375 C 5.582031 -1.203125 4.679688 -0.59375 3.546875 -0.40625 Z M 3.84375 -1.140625 C 4.65625 -1.285156 5.316406 -1.726562 5.828125 -2.46875 C 4.679688 -3.113281 3.707031 -3.984375 2.90625 -5.078125 C 2.300781 -4.796875 1.878906 -4.4375 1.640625 -4 C 1.410156 -3.5625 1.335938 -3.117188 1.421875 -2.671875 C 1.523438 -2.023438 1.800781 -1.582031 2.25 -1.34375 C 2.695312 -1.101562 3.226562 -1.035156 3.84375 -1.140625 Z M 3.84375 -1.140625 "/></g></g></g><g fill="#ffffff" fill-opacity="1"><g transform="translate(183.821184, 82.099866)"><g/></g></g><g fill="#ffffff" fill-opacity="1"><g transform="translate(189.721417, 81.800601)"><g><path d="M 12.4375 -7.953125 L 13.140625 -7.875 L 8.4375 1.265625 L 8.203125 1.25 L 6.78125 -4.84375 L 3.921875 0.71875 L 3.6875 0.6875 L 1.3125 -9.34375 L 2.859375 -9.15625 L 4.390625 -1.1875 L 6.5625 -5.703125 L 5.828125 -8.78125 L 7.375 -8.59375 L 8.921875 -0.625 Z M 12.4375 -7.953125 "/></g></g></g><g fill="#ffffff" fill-opacity="1"><g transform="translate(203.918567, 83.923241)"><g><path d="M 0.140625 0.046875 L 7.125 -7.859375 L 7.328125 -7.796875 L 8.40625 2.703125 L 6.9375 2.21875 L 6.6875 -0.546875 L 2.65625 -1.84375 L 0.859375 0.28125 Z M 3.03125 -2.28125 L 6.65625 -1.125 L 6.25 -6.109375 Z M 3.03125 -2.28125 "/></g></g></g><g fill="#ffffff" fill-opacity="1"><g transform="translate(214.536791, 87.495629)"><g><path d="M 7.421875 4.046875 L 7.21875 3.9375 L 5.28125 -5.890625 L 5.21875 -5.921875 L 1.6875 0.875 L 1.140625 0.59375 L 5.5 -7.78125 L 6.4375 -7.296875 L 8.09375 1.3125 L 8.125 1.328125 L 11.296875 -4.765625 L 11.859375 -4.46875 Z M 7.421875 4.046875 "/></g></g></g><g fill="#ffffff" fill-opacity="1"><g transform="translate(225.041994, 93.168679)"><g><path d="M 1.015625 0.78125 L 6.78125 -6.6875 L 8.921875 -5.03125 C 9.804688 -4.351562 10.460938 -3.550781 10.890625 -2.625 C 11.128906 -2.125 11.273438 -1.617188 11.328125 -1.109375 C 11.390625 -0.597656 11.328125 -0.046875 11.140625 0.546875 C 10.960938 1.140625 10.660156 1.710938 10.234375 2.265625 C 9.617188 3.054688 8.898438 3.578125 8.078125 3.828125 C 6.566406 4.265625 4.992188 3.851562 3.359375 2.59375 Z M 3.4375 2.03125 C 4.394531 2.769531 5.378906 3.082031 6.390625 2.96875 C 7.410156 2.851562 8.335938 2.253906 9.171875 1.171875 C 9.828125 0.316406 10.15625 -0.582031 10.15625 -1.53125 C 10.164062 -2.488281 9.878906 -3.351562 9.296875 -4.125 C 8.648438 -4.625 8.015625 -4.976562 7.390625 -5.1875 L 2.5 1.15625 C 2.6875 1.40625 3 1.695312 3.4375 2.03125 Z M 3.4375 2.03125 "/></g></g></g><g fill="#ffffff" fill-opacity="1"><g transform="translate(234.639955, 100.922821)"><g><path d="M 0.875 0.9375 L 7.796875 -5.484375 L 11.6875 -1.296875 L 10.890625 -0.734375 L 9.40625 -3 C 9.09375 -3.332031 8.6875 -3.648438 8.1875 -3.953125 L 5.640625 -1.59375 L 7.796875 0.71875 L 7.390625 1.09375 L 5.234375 -1.21875 L 2.1875 1.609375 L 5.53125 4.5625 L 4.734375 5.09375 Z M 0.875 0.9375 "/></g></g></g><g fill="#ffffff" fill-opacity="1"><g transform="translate(241.539369, 108.563216)"><g><path d="M 5.25 -0.28125 L 1.5 2.234375 L 0.71875 1.0625 L 8.5625 -4.1875 L 10.265625 -1.625 C 10.804688 -0.820312 11.066406 -0.046875 11.046875 0.703125 C 11.035156 1.453125 10.738281 2.019531 10.15625 2.40625 C 9.582031 2.789062 8.988281 2.890625 8.375 2.703125 C 7.757812 2.523438 7.160156 2.132812 6.578125 1.53125 L 4.859375 7.28125 L 3.765625 6 L 5.84375 0.625 Z M 5.609375 -0.515625 L 6.109375 0.234375 C 7.054688 1.660156 8.09375 2 9.21875 1.25 C 9.394531 1.132812 9.578125 0.941406 9.765625 0.671875 C 10.128906 0.160156 10.195312 -0.441406 9.96875 -1.140625 C 9.613281 -1.671875 9.191406 -2.148438 8.703125 -2.578125 Z M 5.609375 -0.515625 "/></g></g></g><g clip-path="url(#e2c41ab795)"><path fill="#ffffff" d="M 148.589844 149.753906 C 151.292969 149.675781 153.90625 149.152344 156.433594 148.183594 C 157.730469 147.730469 159.050781 147.367188 160.398438 147.101562 C 161.539062 146.867188 162.683594 146.832031 163.835938 146.992188 C 162.910156 148.671875 162.304688 150.460938 162.015625 152.355469 C 161.039062 154.667969 160.226562 157.035156 159.585938 159.460938 C 159.445312 160.402344 158.28125 161.21875 157.042969 162.078125 C 156.636719 162.363281 156.230469 162.644531 155.820312 162.957031 C 154.097656 164.273438 152.683594 165.890625 153.5 168.714844 C 154.179688 171.90625 154.664062 175.125 154.957031 178.375 C 155.050781 179.238281 155.351562 180.023438 155.851562 180.730469 C 156.355469 181.441406 156.996094 181.980469 157.78125 182.355469 C 162 184.394531 163.035156 184.550781 163.425781 184.550781 L 163.535156 184.550781 C 163.898438 184.546875 164.234375 184.453125 164.550781 184.277344 C 164.863281 184.097656 165.117188 183.855469 165.308594 183.550781 C 165.53125 183.078125 165.632812 182.578125 165.605469 182.058594 C 165.582031 181.535156 165.433594 181.050781 165.167969 180.601562 C 164.960938 180.085938 164.628906 179.664062 164.179688 179.335938 C 163.730469 179.007812 163.230469 178.820312 162.675781 178.78125 C 162.210938 178.742188 161.792969 178.585938 161.417969 178.3125 C 160.398438 177.464844 160.605469 174.0625 160.699219 172.414062 C 160.777344 171.066406 162.707031 168.007812 163.976562 166.328125 L 165.074219 165.640625 L 171.347656 170.34375 C 171.582031 171.175781 172.351562 173.855469 172.914062 175.425781 C 174.203125 178.175781 175.773438 180.757812 177.621094 183.171875 C 178.292969 183.957031 180.945312 184.519531 182.808594 184.519531 C 183.257812 184.535156 183.695312 184.484375 184.128906 184.363281 C 184.378906 184.324219 184.59375 184.210938 184.773438 184.027344 C 184.953125 183.847656 185.0625 183.628906 185.101562 183.375 C 185.101562 183.25 185.101562 183.125 185.101562 183 C 185.230469 182.632812 185.285156 182.253906 185.257812 181.863281 C 185.226562 181.472656 185.125 181.105469 184.941406 180.761719 C 184.761719 180.414062 184.515625 180.121094 184.210938 179.878906 C 183.90625 179.632812 183.5625 179.460938 183.1875 179.363281 C 181.757812 178.859375 179.625 176.226562 178.734375 174.96875 C 179.007812 171.859375 178.792969 168.777344 178.089844 165.734375 C 177.503906 163.808594 177.335938 161.847656 177.589844 159.851562 C 179.785156 161.328125 186.136719 164.558594 199.074219 163.710938 L 200.046875 163.898438 C 201.367188 164.148438 202.601562 164.625 203.746094 165.324219 C 203.652344 169.261719 203.589844 171.597656 203.527344 172.320312 C 203.480469 173.304688 203.53125 174.28125 203.683594 175.253906 C 203.828125 176.292969 203.894531 177.339844 203.886719 178.390625 L 203.886719 179.109375 C 203.792969 181.496094 203.714844 183.816406 205 184.632812 C 205.839844 185.058594 206.726562 185.242188 207.667969 185.179688 C 208.632812 185.175781 209.589844 185.078125 210.535156 184.882812 C 211.183594 184.757812 211.648438 184.394531 211.933594 183.800781 C 212.242188 182.976562 212.179688 182.179688 211.742188 181.417969 C 211.484375 180.902344 211.109375 180.496094 210.621094 180.1875 C 210.136719 179.882812 209.605469 179.722656 209.03125 179.707031 L 208.464844 179.613281 C 208.253906 178.160156 208.402344 176.742188 208.90625 175.363281 C 209.324219 173.289062 209.628906 171.199219 209.816406 169.089844 L 209.816406 168.871094 L 215.429688 168.539062 L 217.78125 171.035156 L 217.296875 177.152344 L 217.296875 177.261719 L 217.421875 179.394531 C 217.394531 179.953125 217.578125 180.433594 217.96875 180.835938 C 219.144531 181.664062 220.449219 181.992188 221.875 181.824219 L 224.039062 181.824219 C 224.378906 181.820312 224.707031 181.753906 225.019531 181.625 C 225.335938 181.492188 225.613281 181.308594 225.851562 181.066406 C 226.09375 180.824219 226.28125 180.546875 226.410156 180.234375 C 226.542969 179.917969 226.609375 179.59375 226.609375 179.25 C 226.691406 178.691406 226.585938 178.167969 226.296875 177.683594 C 225.847656 177.179688 225.289062 176.878906 224.621094 176.789062 L 224.523438 176.789062 C 224.382812 176.789062 223.175781 176.570312 223.222656 175.660156 L 223.789062 169.386719 C 223.882812 168.324219 223.5625 167.40625 222.832031 166.628906 L 219.222656 162.769531 C 218.792969 162.300781 218.269531 161.976562 217.65625 161.796875 L 215.476562 161.027344 C 216.699219 159.980469 217.675781 158.742188 218.40625 157.308594 C 219.136719 155.871094 219.566406 154.351562 219.695312 152.75 C 219.835938 149.863281 220.746094 143.761719 220.746094 143.699219 L 221.089844 140.5625 C 221.101562 140.414062 221.070312 140.273438 220.996094 140.140625 C 221.46875 139.332031 222.070312 138.636719 222.800781 138.054688 C 222.976562 137.921875 223.171875 137.890625 223.378906 137.960938 C 223.992188 138.21875 224.628906 138.347656 225.292969 138.347656 C 225.957031 138.347656 226.59375 138.21875 227.207031 137.960938 C 228.890625 137.191406 230.617188 136.527344 232.382812 135.96875 C 232.808594 135.824219 233.183594 135.589844 233.503906 135.269531 C 233.824219 134.949219 234.054688 134.578125 234.199219 134.148438 L 234.796875 132.425781 L 234.9375 132.300781 C 235.722656 131.546875 236.113281 130.625 236.113281 129.539062 C 235.976562 129.0625 235.726562 128.660156 235.359375 128.328125 C 234.992188 128 234.5625 127.789062 234.074219 127.703125 L 233.730469 127.5 C 232.660156 127.007812 231.546875 126.648438 230.390625 126.417969 C 229.078125 126.199219 227.847656 125.75 226.703125 125.070312 C 226.375 124.835938 225.859375 124.363281 226 123.972656 C 226.105469 123.644531 226.105469 123.316406 225.996094 122.988281 C 225.882812 122.660156 225.6875 122.398438 225.402344 122.199219 C 223.367188 120.6875 221.105469 119.707031 218.613281 119.25 C 217.566406 119.078125 216.605469 119.285156 215.726562 119.878906 C 214.746094 120.019531 213.761719 120.019531 212.777344 119.878906 C 212.183594 119.792969 211.585938 119.792969 210.992188 119.878906 C 209.28125 120.144531 206.285156 123.578125 205.535156 125.023438 C 205.324219 125.695312 205.265625 126.378906 205.359375 127.074219 C 205.457031 127.773438 205.699219 128.417969 206.082031 129.003906 C 205.605469 130.652344 205.292969 132.332031 205.140625 134.039062 L 205.140625 134.855469 C 187.9375 127.109375 177.054688 118.6875 171.816406 109.074219 C 171.714844 108.890625 171.5625 108.769531 171.359375 108.710938 C 171.160156 108.65625 170.964844 108.675781 170.78125 108.777344 C 170.59375 108.875 170.472656 109.027344 170.414062 109.230469 C 170.355469 109.433594 170.378906 109.625 170.484375 109.8125 C 175.894531 119.738281 187.042969 128.410156 204.515625 136.328125 L 204.042969 137.695312 C 203.421875 138.230469 202.730469 138.660156 201.972656 138.980469 C 201.175781 139.339844 200.339844 139.550781 199.464844 139.605469 C 198.34375 139.746094 197.296875 140.109375 196.328125 140.6875 C 195.089844 141.347656 191.355469 140.6875 187.734375 140.125 C 184.210938 139.351562 180.644531 139.003906 177.039062 139.074219 C 174.871094 139.289062 172.78125 139.808594 170.765625 140.640625 C 169.371094 141.175781 168.757812 141.378906 167.816406 141.003906 C 165.167969 139.953125 160.367188 141.363281 157.199219 142.273438 L 156.996094 142.273438 C 153.644531 143.226562 150.296875 143.226562 146.945312 142.273438 C 143.980469 141.066406 139.542969 142.933594 139.355469 143.027344 C 139.105469 143.121094 138.957031 143.300781 138.898438 143.558594 C 138.84375 143.820312 138.90625 144.050781 139.085938 144.25 C 139.292969 144.5625 144.027344 149.613281 148.589844 149.753906 Z M 163.035156 165.121094 C 162.957031 165.171875 162.886719 165.234375 162.832031 165.308594 C 162.46875 165.78125 159.300781 170.015625 159.160156 172.351562 C 159.003906 175.285156 158.957031 178.265625 160.445312 179.503906 C 161.015625 179.960938 161.664062 180.226562 162.390625 180.300781 C 163.082031 180.445312 163.425781 180.507812 163.773438 181.242188 C 164.078125 181.734375 164.152344 182.257812 163.992188 182.8125 C 163.855469 182.980469 163.675781 183.066406 163.457031 183.0625 C 161.691406 182.609375 160.019531 181.925781 158.441406 181.007812 C 157.902344 180.75 157.457031 180.382812 157.109375 179.894531 C 156.761719 179.410156 156.550781 178.871094 156.480469 178.28125 C 156.152344 174.933594 155.628906 171.621094 154.910156 168.335938 C 154.410156 166.769531 154.910156 165.65625 156.699219 164.242188 L 157.875 163.414062 C 159.445312 162.363281 160.808594 161.359375 161.011719 159.757812 C 161.363281 158.339844 161.824219 156.953125 162.390625 155.601562 L 162.707031 157.171875 C 163.101562 159.578125 163.625 161.957031 164.273438 164.308594 Z M 208.8125 181.132812 C 209.578125 181.242188 210.066406 181.351562 210.378906 181.980469 C 210.574219 182.335938 210.609375 182.707031 210.488281 183.09375 C 210.40625 183.253906 210.277344 183.34375 210.097656 183.359375 C 208.660156 183.726562 207.222656 183.726562 205.785156 183.359375 C 205.203125 182.953125 205.28125 180.773438 205.328125 179.171875 L 205.328125 178.4375 C 205.335938 177.308594 205.261719 176.183594 205.109375 175.066406 C 204.96875 174.195312 204.917969 173.324219 204.953125 172.445312 C 204.953125 171.769531 205.078125 169.9375 205.140625 166.863281 L 205.863281 167.601562 C 206.523438 168.300781 207.328125 168.726562 208.277344 168.886719 C 207.980469 171.457031 207.652344 174.109375 207.429688 174.828125 C 207.429688 174.828125 206.207031 178.984375 207.179688 180.398438 C 207.609375 180.894531 208.152344 181.140625 208.8125 181.132812 Z M 206.144531 136.25 C 210.371094 138.492188 214.824219 140.109375 219.507812 141.097656 L 219.320312 142.664062 C 210.253906 140.75 206.632812 138.601562 205.597656 137.867188 Z M 233.949219 131.234375 C 233.339844 130.871094 232.960938 130.449219 232.976562 130.121094 C 232.992188 129.789062 233.496094 129.367188 233.761719 129.257812 C 234.027344 129.148438 234.515625 129.539062 234.578125 129.882812 C 234.527344 130.40625 234.320312 130.855469 233.949219 131.234375 Z M 218.457031 120.835938 C 220.6875 121.273438 222.714844 122.167969 224.539062 123.515625 C 224.335938 124.082031 224.242188 125.195312 225.78125 126.339844 C 227.085938 127.136719 228.492188 127.660156 230 127.90625 C 230.714844 128.066406 231.417969 128.257812 232.117188 128.488281 C 231.671875 128.917969 231.445312 129.4375 231.441406 130.054688 C 231.5 130.589844 231.683594 131.078125 231.992188 131.519531 C 232.300781 131.960938 232.699219 132.296875 233.183594 132.535156 L 232.773438 133.742188 C 232.625 134.179688 232.335938 134.472656 231.894531 134.621094 C 230.054688 135.207031 228.257812 135.902344 226.5 136.707031 C 225.625 136.976562 224.769531 136.929688 223.929688 136.566406 C 223.578125 136.429688 223.21875 136.394531 222.851562 136.453125 C 222.480469 136.511719 222.148438 136.660156 221.859375 136.894531 C 220.925781 137.632812 220.171875 138.527344 219.601562 139.574219 C 215.027344 138.589844 210.679688 136.980469 206.570312 134.746094 C 206.570312 134.542969 206.570312 134.320312 206.570312 134.101562 C 206.679688 132.859375 206.894531 131.636719 207.210938 130.433594 C 207.546875 130.675781 207.777344 130.996094 207.902344 131.390625 C 208.132812 131.933594 208.441406 132.429688 208.828125 132.878906 C 210.417969 134.128906 212.214844 134.882812 214.222656 135.136719 C 214.828125 135.273438 215.40625 135.492188 215.945312 135.796875 C 216.617188 136.191406 217.335938 136.421875 218.109375 136.484375 C 218.230469 136.5 218.351562 136.5 218.472656 136.484375 C 219.03125 136.390625 219.421875 136.082031 219.648438 135.5625 C 219.992188 134.640625 220.148438 133.6875 220.113281 132.703125 C 220.078125 131.71875 219.855469 130.777344 219.445312 129.882812 C 218.542969 127.699219 218.101562 125.425781 218.109375 123.0625 C 218.179688 122.191406 217.917969 121.433594 217.328125 120.789062 C 217.703125 120.738281 218.078125 120.738281 218.457031 120.789062 Z M 206.851562 125.695312 C 207.910156 123.890625 209.347656 122.460938 211.164062 121.414062 L 211.617188 121.414062 C 211.921875 121.421875 212.226562 121.445312 212.527344 121.492188 C 213.625 121.636719 214.722656 121.636719 215.820312 121.492188 C 216.117188 121.636719 216.347656 121.851562 216.507812 122.140625 C 216.667969 122.425781 216.734375 122.734375 216.699219 123.0625 C 216.667969 125.679688 217.15625 128.195312 218.175781 130.605469 C 218.5 131.304688 218.679688 132.042969 218.707031 132.816406 C 218.738281 133.585938 218.617188 134.335938 218.347656 135.058594 C 217.777344 135.015625 217.253906 134.835938 216.777344 134.527344 C 216.109375 134.167969 215.402344 133.90625 214.660156 133.742188 C 213.003906 133.527344 211.492188 132.9375 210.128906 131.96875 C 209.847656 131.597656 209.625 131.195312 209.453125 130.761719 C 209.191406 130.101562 208.765625 129.578125 208.167969 129.195312 C 207.65625 128.757812 207.28125 128.226562 207.046875 127.59375 C 206.8125 126.964844 206.746094 126.316406 206.851562 125.648438 Z M 146.363281 143.777344 C 148.171875 144.300781 150.011719 144.5625 151.890625 144.5625 C 153.773438 144.5625 155.613281 144.300781 157.421875 143.777344 L 157.703125 143.777344 C 160.496094 142.964844 165.167969 141.597656 167.332031 142.460938 C 168.003906 142.695312 168.691406 142.78125 169.402344 142.714844 C 170.109375 142.652344 170.773438 142.449219 171.394531 142.101562 C 173.253906 141.339844 175.183594 140.855469 177.179688 140.640625 C 180.679688 140.558594 184.140625 140.882812 187.5625 141.613281 C 191.78125 142.320312 195.402344 142.914062 197.128906 142.039062 C 197.875 141.5625 198.6875 141.253906 199.558594 141.113281 C 200.613281 141.046875 201.621094 140.800781 202.585938 140.375 C 203.363281 140.039062 204.085938 139.605469 204.75 139.074219 C 206.066406 139.984375 209.957031 142.210938 219.175781 144.140625 C 218.925781 145.847656 218.316406 150.207031 218.207031 152.609375 C 218.089844 154.105469 217.683594 155.515625 216.980469 156.839844 C 216.273438 158.167969 215.335938 159.296875 214.160156 160.230469 L 214.082031 160.230469 C 213.726562 159.90625 213.484375 159.515625 213.359375 159.054688 L 213.09375 158.128906 C 213.035156 157.925781 212.914062 157.773438 212.730469 157.667969 C 212.546875 157.5625 212.355469 157.539062 212.152344 157.59375 C 211.949219 157.65625 211.792969 157.777344 211.691406 157.964844 C 211.585938 158.148438 211.5625 158.347656 211.617188 158.550781 L 211.886719 159.476562 C 212.167969 160.476562 212.746094 161.257812 213.625 161.8125 C 213.847656 161.953125 214.085938 162.070312 214.332031 162.160156 L 217.15625 163.191406 C 217.519531 163.304688 217.832031 163.496094 218.09375 163.773438 L 221.703125 167.617188 C 222.109375 168.058594 222.292969 168.582031 222.25 169.183594 L 221.6875 175.457031 C 221.679688 175.8125 221.734375 176.15625 221.859375 176.492188 C 221.984375 176.824219 222.167969 177.121094 222.40625 177.386719 C 222.644531 177.648438 222.925781 177.855469 223.246094 178.011719 C 223.566406 178.167969 223.902344 178.253906 224.257812 178.28125 C 224.535156 178.332031 224.796875 178.425781 225.042969 178.5625 C 225.0625 178.769531 225.0625 178.980469 225.042969 179.1875 C 225.039062 179.472656 224.9375 179.714844 224.734375 179.917969 C 224.535156 180.117188 224.292969 180.21875 224.007812 180.222656 L 221.890625 180.222656 C 220.324219 180.222656 219.429688 180.050781 219.082031 179.691406 C 218.976562 179.585938 218.941406 179.460938 218.972656 179.316406 L 218.863281 177.230469 L 219.367188 170.832031 C 219.382812 170.601562 219.3125 170.40625 219.160156 170.234375 L 216.308594 167.300781 C 216.148438 167.125 215.949219 167.046875 215.710938 167.066406 L 209.25 167.457031 C 209.25 167.457031 209.25 167.457031 209.171875 167.457031 C 208.328125 167.484375 207.609375 167.191406 207.023438 166.582031 L 205.046875 164.527344 C 205.019531 164.476562 204.984375 164.433594 204.9375 164.402344 L 204.75 164.164062 C 203.382812 163.226562 201.882812 162.609375 200.25 162.316406 L 199.152344 162.09375 L 198.964844 162.09375 C 185.632812 162.972656 179.5625 159.460938 178.089844 158.332031 L 178.703125 156.761719 C 178.78125 156.566406 178.78125 156.371094 178.699219 156.171875 C 178.617188 155.976562 178.476562 155.839844 178.277344 155.757812 C 178.082031 155.679688 177.882812 155.679688 177.6875 155.761719 C 177.492188 155.847656 177.355469 155.984375 177.273438 156.183594 L 176.441406 158.191406 C 175.421875 160.605469 175.957031 163.066406 176.570312 165.9375 C 177.34375 168.960938 177.601562 172.03125 177.335938 175.144531 C 177.320312 175.328125 177.367188 175.496094 177.476562 175.644531 C 177.777344 176.101562 180.613281 180.050781 182.824219 180.851562 C 184.019531 181.257812 183.921875 181.824219 183.75 182.765625 C 183.75 182.765625 183.75 182.890625 183.75 182.953125 C 182.070312 183.121094 180.457031 182.871094 178.90625 182.199219 C 177.164062 179.945312 175.675781 177.535156 174.4375 174.96875 C 173.824219 173.167969 172.867188 169.75 172.867188 169.703125 C 172.820312 169.542969 172.730469 169.410156 172.601562 169.308594 L 166.234375 164.605469 C 166.234375 164.605469 166.234375 164.464844 166.15625 164.402344 C 165.40625 161.945312 164.820312 159.453125 164.398438 156.921875 C 164.132812 155.539062 163.898438 154.363281 163.710938 153.5625 C 163.644531 153.289062 163.621094 153.015625 163.628906 152.734375 C 163.917969 150.71875 164.554688 148.820312 165.542969 147.039062 C 165.648438 146.875 165.679688 146.699219 165.644531 146.507812 C 165.609375 146.320312 165.511719 146.167969 165.355469 146.050781 C 165.136719 145.878906 163.789062 145.015625 160.085938 145.660156 C 158.667969 145.9375 157.277344 146.3125 155.914062 146.789062 C 153.550781 147.683594 151.101562 148.160156 148.574219 148.214844 C 145.675781 148.214844 142.476562 145.503906 140.984375 144.140625 C 142.742188 143.453125 144.535156 143.332031 146.363281 143.777344 Z M 146.363281 143.777344 " fill-opacity="1" fill-rule="nonzero"/></g><path fill="#ffffff" d="M 221.027344 127.390625 C 221.300781 127.394531 221.515625 127.285156 221.671875 127.0625 C 222.125 126.402344 222.566406 126.496094 222.660156 126.511719 C 222.851562 126.585938 223.042969 126.582031 223.230469 126.5 C 223.421875 126.417969 223.554688 126.28125 223.632812 126.089844 C 223.710938 125.890625 223.710938 125.695312 223.628906 125.5 C 223.546875 125.304688 223.40625 125.164062 223.207031 125.085938 C 222.945312 125.003906 222.675781 124.96875 222.402344 124.980469 C 222.128906 124.992188 221.863281 125.046875 221.609375 125.148438 C 221.355469 125.25 221.121094 125.390625 220.914062 125.570312 C 220.707031 125.75 220.535156 125.960938 220.402344 126.199219 C 220.28125 126.371094 220.242188 126.5625 220.285156 126.765625 C 220.324219 126.972656 220.429688 127.132812 220.605469 127.25 C 220.730469 127.34375 220.871094 127.390625 221.027344 127.390625 Z M 221.027344 127.390625 " fill-opacity="1" fill-rule="nonzero"/><g fill="#ffffff" fill-opacity="1"><g transform="translate(127.470946, 198.264372)"><g><path d="M 7.34375 -3.5 C 7.03125 -3.21875 6.847656 -2.835938 6.796875 -2.359375 C 6.753906 -1.878906 6.789062 -1.375 6.90625 -0.84375 C 7.019531 -0.3125 7.128906 0.21875 7.234375 0.75 C 7.347656 1.28125 7.359375 1.804688 7.265625 2.328125 C 7.179688 2.847656 6.957031 3.273438 6.59375 3.609375 C 6.007812 4.128906 5.34375 4.335938 4.59375 4.234375 C 3.84375 4.140625 3.140625 3.726562 2.484375 3 C 1.828125 2.269531 1.316406 1.425781 0.953125 0.46875 L 1.453125 0.015625 C 1.734375 1.066406 2.101562 1.84375 2.5625 2.34375 C 3.019531 2.851562 3.5 3.132812 4 3.1875 C 4.5 3.25 4.972656 3.082031 5.421875 2.6875 C 5.710938 2.425781 5.875 2.066406 5.90625 1.609375 C 5.9375 1.148438 5.890625 0.675781 5.765625 0.1875 C 5.648438 -0.289062 5.539062 -0.785156 5.4375 -1.296875 C 5.332031 -1.804688 5.320312 -2.304688 5.40625 -2.796875 C 5.488281 -3.285156 5.738281 -3.71875 6.15625 -4.09375 C 6.570312 -4.46875 7.125 -4.632812 7.8125 -4.59375 C 8.5 -4.5625 9.175781 -4.175781 9.84375 -3.4375 C 10.269531 -2.957031 10.707031 -2.253906 11.15625 -1.328125 L 10.34375 -0.765625 C 9.882812 -2.097656 9.351562 -3.101562 8.75 -3.78125 C 8.238281 -3.976562 7.769531 -3.882812 7.34375 -3.5 Z M 7.34375 -3.5 "/></g></g></g><g fill="#ffffff" fill-opacity="1"><g transform="translate(135.458103, 206.811763)"><g><path d="M 10.34375 -4.0625 C 11.3125 -3.289062 11.859375 -2.335938 11.984375 -1.203125 C 12.109375 -0.0664062 11.722656 1.066406 10.828125 2.203125 C 10.253906 2.929688 9.625 3.46875 8.9375 3.8125 C 8.25 4.164062 7.582031 4.332031 6.9375 4.3125 C 5.675781 4.257812 4.5625 3.847656 3.59375 3.078125 C 2.632812 2.316406 2.09375 1.363281 1.96875 0.21875 C 1.851562 -0.925781 2.25 -2.066406 3.15625 -3.203125 C 3.625 -3.785156 4.128906 -4.242188 4.671875 -4.578125 C 5.210938 -4.921875 5.738281 -5.132812 6.25 -5.21875 C 6.757812 -5.300781 7.273438 -5.300781 7.796875 -5.21875 C 8.722656 -5.050781 9.570312 -4.664062 10.34375 -4.0625 Z M 3.140625 0.421875 C 3.066406 0.890625 3.125 1.347656 3.3125 1.796875 C 3.5 2.242188 3.804688 2.632812 4.234375 2.96875 C 4.660156 3.3125 5.125 3.507812 5.625 3.5625 C 6.132812 3.613281 6.617188 3.535156 7.078125 3.328125 C 8.015625 2.929688 8.800781 2.332031 9.4375 1.53125 C 10.226562 0.53125 10.671875 -0.425781 10.765625 -1.34375 C 10.847656 -2.363281 10.382812 -3.28125 9.375 -4.09375 C 8.457031 -4.40625 7.566406 -4.394531 6.703125 -4.0625 C 5.835938 -3.738281 5.09375 -3.1875 4.46875 -2.40625 C 3.71875 -1.457031 3.273438 -0.515625 3.140625 0.421875 Z M 3.140625 0.421875 "/></g></g></g><g fill="#ffffff" fill-opacity="1"><g transform="translate(146.765729, 215.28983)"><g><path d="M 4.875 2.84375 C 3.582031 2.132812 2.679688 1.1875 2.171875 0 C 1.671875 -1.175781 1.773438 -2.421875 2.484375 -3.734375 C 2.898438 -4.503906 3.414062 -5.109375 4.03125 -5.546875 C 4.644531 -5.992188 5.289062 -6.257812 5.96875 -6.34375 C 7.300781 -6.519531 8.5625 -6.285156 9.75 -5.640625 C 10.445312 -5.265625 11.101562 -4.75 11.71875 -4.09375 L 11.140625 -3.296875 C 10.835938 -3.679688 10.597656 -3.972656 10.421875 -4.171875 C 9.929688 -4.742188 9.363281 -5.203125 8.71875 -5.546875 C 7.738281 -5.816406 6.828125 -5.742188 5.984375 -5.328125 C 5.140625 -4.921875 4.445312 -4.21875 3.90625 -3.21875 C 3.238281 -1.988281 3.046875 -0.867188 3.328125 0.140625 C 3.617188 1.160156 4.289062 1.957031 5.34375 2.53125 C 6.394531 3.101562 7.300781 3.300781 8.0625 3.125 L 7.703125 3.8125 C 6.828125 3.71875 5.882812 3.394531 4.875 2.84375 Z M 4.875 2.84375 "/></g></g></g><g fill="#ffffff" fill-opacity="1"><g transform="translate(158.020734, 220.939837)"><g><path d="M 5.8125 -7.875 L 2.421875 0.9375 L 1.203125 0.453125 L 4.59375 -8.359375 Z M 5.8125 -7.875 "/></g></g></g><g fill="#ffffff" fill-opacity="1"><g transform="translate(165.021071, 223.559761)"><g><path d="M 0.140625 0.03125 L 6.53125 -8.375 L 6.75 -8.328125 L 8.578125 2.078125 L 7.078125 1.71875 L 6.640625 -1.015625 L 2.515625 -2.015625 L 0.875 0.21875 Z M 2.859375 -2.5 L 6.546875 -1.609375 L 5.8125 -6.546875 Z M 2.859375 -2.5 "/></g></g></g><g fill="#ffffff" fill-opacity="1"><g transform="translate(177.394875, 226.195391)"><g><path d="M 1.28125 0.109375 L 2.109375 -9.296875 L 3.5 -9.171875 L 2.734375 -0.53125 C 3.296875 -0.3125 3.753906 -0.1875 4.109375 -0.15625 L 6.703125 -0.375 L 6.453125 0.5625 Z M 1.28125 0.109375 "/></g></g></g><g fill="#ffffff" fill-opacity="1"><g transform="translate(187.830085, 226.813943)"><g/></g></g><g fill="#ffffff" fill-opacity="1"><g transform="translate(195.003253, 226.591827)"><g><path d="M 6.53125 -5.15625 L 7.890625 -5.375 L 8.484375 -1.671875 C 7.734375 -1.222656 6.785156 -0.90625 5.640625 -0.71875 C 4.265625 -0.5 3.019531 -0.675781 1.90625 -1.25 C 1.363281 -1.550781 0.898438 -1.972656 0.515625 -2.515625 C 0.128906 -3.066406 -0.117188 -3.703125 -0.234375 -4.421875 C -0.347656 -5.148438 -0.335938 -5.816406 -0.203125 -6.421875 C -0.078125 -7.035156 0.128906 -7.566406 0.421875 -8.015625 C 0.722656 -8.460938 1.097656 -8.859375 1.546875 -9.203125 C 2.359375 -9.847656 3.296875 -10.253906 4.359375 -10.421875 C 4.773438 -10.484375 5.226562 -10.507812 5.71875 -10.5 C 6.21875 -10.488281 6.601562 -10.453125 6.875 -10.390625 L 6.875 -9.40625 C 5.519531 -9.75 4.425781 -9.851562 3.59375 -9.71875 C 2.6875 -9.320312 2.015625 -8.695312 1.578125 -7.84375 C 1.148438 -7 1.023438 -6.023438 1.203125 -4.921875 C 1.421875 -3.554688 1.953125 -2.554688 2.796875 -1.921875 C 3.648438 -1.296875 4.664062 -1.078125 5.84375 -1.265625 C 6.3125 -1.335938 6.726562 -1.453125 7.09375 -1.609375 Z M 6.53125 -5.15625 "/></g></g></g><g fill="#ffffff" fill-opacity="1"><g transform="translate(208.251324, 224.126739)"><g><path d="M 1.09375 -5.140625 L 2.546875 -0.859375 L 1.21875 -0.40625 L -1.828125 -9.34375 L 1.078125 -10.34375 C 1.992188 -10.65625 2.8125 -10.707031 3.53125 -10.5 C 4.25 -10.289062 4.71875 -9.851562 4.9375 -9.1875 C 5.164062 -8.53125 5.113281 -7.925781 4.78125 -7.375 C 4.445312 -6.832031 3.910156 -6.363281 3.171875 -5.96875 L 8.28125 -2.828125 L 6.78125 -2.09375 L 2.125 -5.5 Z M 0.953125 -5.53125 L 1.8125 -5.828125 C 3.425781 -6.378906 4.015625 -7.296875 3.578125 -8.578125 C 3.503906 -8.785156 3.367188 -9.015625 3.171875 -9.265625 C 2.773438 -9.742188 2.207031 -9.960938 1.46875 -9.921875 C 0.863281 -9.710938 0.289062 -9.425781 -0.25 -9.0625 Z M 0.953125 -5.53125 "/></g></g></g><g fill="#ffffff" fill-opacity="1"><g transform="translate(220.372119, 219.70202)"><g><path d="M 0.265625 -11.109375 C 1.347656 -11.703125 2.4375 -11.835938 3.53125 -11.515625 C 4.632812 -11.191406 5.535156 -10.394531 6.234375 -9.125 C 6.679688 -8.3125 6.929688 -7.519531 6.984375 -6.75 C 7.035156 -5.988281 6.925781 -5.316406 6.65625 -4.734375 C 6.113281 -3.585938 5.300781 -2.71875 4.21875 -2.125 C 3.144531 -1.53125 2.054688 -1.398438 0.953125 -1.734375 C -0.140625 -2.078125 -1.035156 -2.882812 -1.734375 -4.15625 C -2.097656 -4.8125 -2.332031 -5.453125 -2.4375 -6.078125 C -2.539062 -6.710938 -2.53125 -7.28125 -2.40625 -7.78125 C -2.28125 -8.28125 -2.082031 -8.753906 -1.8125 -9.203125 C -1.289062 -10.003906 -0.597656 -10.640625 0.265625 -11.109375 Z M 1.59375 -2.71875 C 2.007812 -2.476562 2.457031 -2.359375 2.9375 -2.359375 C 3.425781 -2.359375 3.910156 -2.488281 4.390625 -2.75 C 4.867188 -3.019531 5.222656 -3.375 5.453125 -3.8125 C 5.691406 -4.257812 5.816406 -4.738281 5.828125 -5.25 C 5.804688 -6.257812 5.550781 -7.210938 5.0625 -8.109375 C 4.445312 -9.222656 3.734375 -10 2.921875 -10.4375 C 2.003906 -10.914062 0.984375 -10.84375 -0.140625 -10.21875 C -0.796875 -9.5 -1.140625 -8.675781 -1.171875 -7.75 C -1.203125 -6.832031 -0.976562 -5.9375 -0.5 -5.0625 C 0.0820312 -4 0.78125 -3.21875 1.59375 -2.71875 Z M 1.59375 -2.71875 "/></g></g></g><g fill="#ffffff" fill-opacity="1"><g transform="translate(232.579058, 212.554019)"><g><path d="M 0.515625 -12.5625 L 4.15625 -8.0625 C 4.707031 -7.375 5.050781 -6.789062 5.1875 -6.3125 C 5.25 -6.113281 5.285156 -5.859375 5.296875 -5.546875 C 5.316406 -5.234375 5.28125 -4.941406 5.1875 -4.671875 C 4.914062 -3.984375 4.414062 -3.34375 3.6875 -2.75 C 1.851562 -1.269531 0.171875 -1.476562 -1.359375 -3.375 L -5.109375 -8.015625 L -3.96875 -8.9375 L -0.140625 -4.203125 C 0.0351562 -3.984375 0.179688 -3.804688 0.296875 -3.671875 C 0.410156 -3.546875 0.597656 -3.390625 0.859375 -3.203125 C 1.128906 -3.023438 1.382812 -2.910156 1.625 -2.859375 C 1.875 -2.804688 2.175781 -2.828125 2.53125 -2.921875 C 2.894531 -3.015625 3.253906 -3.207031 3.609375 -3.5 C 4.992188 -4.625 5.085938 -5.925781 3.890625 -7.40625 L 0.03125 -12.171875 Z M 0.515625 -12.5625 "/></g></g></g><g fill="#ffffff" fill-opacity="1"><g transform="translate(242.532546, 204.049149)"><g><path d="M -0.09375 -10.34375 C 0.570312 -9.738281 0.859375 -9.03125 0.765625 -8.21875 C 0.679688 -7.40625 0.25 -6.566406 -0.53125 -5.703125 L -1.34375 -4.796875 L 1.78125 -1.984375 L 0.859375 -0.953125 L -6.15625 -7.265625 L -4.109375 -9.546875 C -3.460938 -10.265625 -2.773438 -10.703125 -2.046875 -10.859375 C -1.316406 -11.023438 -0.664062 -10.851562 -0.09375 -10.34375 Z M -1.65625 -5.078125 L -0.8125 -6.015625 C -0.507812 -6.347656 -0.316406 -6.691406 -0.234375 -7.046875 C -0.148438 -7.398438 -0.15625 -7.71875 -0.25 -8 C -0.4375 -8.5 -0.695312 -8.898438 -1.03125 -9.203125 C -1.195312 -9.347656 -1.429688 -9.484375 -1.734375 -9.609375 C -2.335938 -9.859375 -2.953125 -9.78125 -3.578125 -9.375 C -4.035156 -8.863281 -4.398438 -8.335938 -4.671875 -7.796875 Z M -1.65625 -5.078125 "/></g></g></g><g fill="#ffffff" fill-opacity="1"><g transform="translate(116.52518, 161.548665)"><g><path d="M -0.109375 -0.625 C -0.0859375 -0.53125 -0.128906 -0.472656 -0.234375 -0.453125 C -0.335938 -0.441406 -0.398438 -0.484375 -0.421875 -0.578125 L -0.53125 -1.296875 C -0.550781 -1.398438 -0.613281 -1.441406 -0.71875 -1.421875 L -6.953125 -0.390625 C -7.054688 -0.367188 -7.097656 -0.304688 -7.078125 -0.203125 L -6.96875 0.515625 C -6.945312 0.609375 -6.988281 0.660156 -7.09375 0.671875 C -7.195312 0.691406 -7.257812 0.65625 -7.28125 0.5625 L -8.078125 -4.296875 C -8.097656 -4.398438 -8.054688 -4.457031 -7.953125 -4.46875 L -6.515625 -4.71875 C -6.410156 -4.726562 -6.347656 -4.679688 -6.328125 -4.578125 C -6.316406 -4.472656 -6.363281 -4.414062 -6.46875 -4.40625 L -7.59375 -4.21875 C -7.695312 -4.195312 -7.738281 -4.132812 -7.71875 -4.03125 L -7.1875 -0.8125 C -7.164062 -0.707031 -7.101562 -0.664062 -7 -0.6875 L -4.25 -1.140625 C -4.144531 -1.160156 -4.101562 -1.222656 -4.125 -1.328125 L -4.5 -3.625 C -4.519531 -3.726562 -4.582031 -3.769531 -4.6875 -3.75 L -5.1875 -3.671875 C -5.289062 -3.648438 -5.347656 -3.691406 -5.359375 -3.796875 C -5.378906 -3.898438 -5.335938 -3.960938 -5.234375 -3.984375 L -3.609375 -4.25 C -3.503906 -4.269531 -3.441406 -4.226562 -3.421875 -4.125 C -3.410156 -4.019531 -3.457031 -3.957031 -3.5625 -3.9375 L -4.0625 -3.859375 C -4.164062 -3.835938 -4.207031 -3.773438 -4.1875 -3.671875 L -3.8125 -1.375 C -3.789062 -1.269531 -3.726562 -1.226562 -3.625 -1.25 L -0.765625 -1.71875 C -0.660156 -1.738281 -0.617188 -1.800781 -0.640625 -1.90625 L -1.1875 -5.234375 C -1.207031 -5.335938 -1.269531 -5.378906 -1.375 -5.359375 L -2.5 -5.171875 C -2.59375 -5.148438 -2.644531 -5.191406 -2.65625 -5.296875 C -2.675781 -5.398438 -2.640625 -5.460938 -2.546875 -5.484375 L -1.109375 -5.71875 C -1.003906 -5.738281 -0.945312 -5.695312 -0.9375 -5.59375 Z M -0.109375 -0.625 "/></g></g></g><g fill="#ffffff" fill-opacity="1"><g transform="translate(115.326975, 153.580404)"><g><path d="M -0.78125 -1.703125 C -0.394531 -2.285156 -0.203125 -2.921875 -0.203125 -3.609375 C -0.203125 -4.304688 -0.351562 -4.847656 -0.65625 -5.234375 C -0.96875 -5.617188 -1.375 -5.8125 -1.875 -5.8125 C -2.132812 -5.8125 -2.367188 -5.726562 -2.578125 -5.5625 C -2.773438 -5.394531 -2.929688 -5.1875 -3.046875 -4.9375 C -3.171875 -4.664062 -3.335938 -4.128906 -3.546875 -3.328125 C -3.765625 -2.535156 -3.945312 -1.988281 -4.09375 -1.6875 C -4.25 -1.382812 -4.441406 -1.144531 -4.671875 -0.96875 C -4.898438 -0.800781 -5.160156 -0.71875 -5.453125 -0.71875 C -6.035156 -0.71875 -6.5 -0.910156 -6.84375 -1.296875 C -7.1875 -1.679688 -7.359375 -2.285156 -7.359375 -3.109375 C -7.359375 -3.929688 -7.066406 -4.691406 -6.484375 -5.390625 C -6.390625 -5.492188 -6.425781 -5.546875 -6.59375 -5.546875 L -7.109375 -5.546875 C -7.210938 -5.546875 -7.265625 -5.597656 -7.265625 -5.703125 C -7.265625 -5.804688 -7.210938 -5.859375 -7.109375 -5.859375 L -5.140625 -5.859375 C -5.035156 -5.859375 -4.984375 -5.804688 -4.984375 -5.703125 C -4.984375 -5.597656 -5.035156 -5.546875 -5.140625 -5.546875 L -5.859375 -5.546875 C -6.296875 -5.171875 -6.632812 -4.695312 -6.875 -4.125 C -7 -3.820312 -7.0625 -3.484375 -7.0625 -3.109375 C -7.0625 -2.398438 -6.914062 -1.875 -6.625 -1.53125 C -6.332031 -1.195312 -5.972656 -1.03125 -5.546875 -1.03125 C -5.273438 -1.03125 -5.039062 -1.113281 -4.84375 -1.28125 C -4.644531 -1.445312 -4.488281 -1.65625 -4.375 -1.90625 C -4.25 -2.1875 -4.078125 -2.722656 -3.859375 -3.515625 C -3.640625 -4.304688 -3.457031 -4.851562 -3.3125 -5.15625 C -3.164062 -5.457031 -2.976562 -5.691406 -2.75 -5.859375 C -2.519531 -6.035156 -2.25 -6.125 -1.9375 -6.125 C -1.3125 -6.125 -0.8125 -5.90625 -0.4375 -5.46875 C -0.0703125 -5.03125 0.109375 -4.378906 0.109375 -3.515625 C 0.109375 -2.660156 -0.1875 -1.890625 -0.78125 -1.203125 C -0.863281 -1.085938 -0.828125 -1.03125 -0.671875 -1.03125 L -0.15625 -1.03125 C -0.0507812 -1.03125 0 -0.976562 0 -0.875 C 0 -0.769531 -0.0507812 -0.71875 -0.15625 -0.71875 L -2.125 -0.71875 C -2.226562 -0.71875 -2.28125 -0.769531 -2.28125 -0.875 C -2.28125 -0.976562 -2.226562 -1.03125 -2.125 -1.03125 L -1.34375 -1.03125 C -1.132812 -1.21875 -0.945312 -1.441406 -0.78125 -1.703125 Z M -0.78125 -1.703125 "/></g></g></g><g fill="#ffffff" fill-opacity="1"><g transform="translate(115.474361, 145.205203)"><g><path d="M -5.484375 -1.1875 L -6.96875 -1.421875 C -7.070312 -1.441406 -7.117188 -1.503906 -7.109375 -1.609375 L -6.1875 -7.140625 C -6.164062 -7.242188 -6.101562 -7.285156 -6 -7.265625 L -4.515625 -7.03125 C -4.410156 -7.007812 -4.363281 -6.945312 -4.375 -6.84375 C -4.394531 -6.738281 -4.457031 -6.695312 -4.5625 -6.71875 L -5.734375 -6.90625 C -5.835938 -6.925781 -5.898438 -6.882812 -5.921875 -6.78125 L -6.28125 -4.625 C -6.300781 -4.519531 -6.257812 -4.457031 -6.15625 -4.4375 L 0.078125 -3.40625 C 0.179688 -3.382812 0.242188 -3.425781 0.265625 -3.53125 L 0.390625 -4.25 C 0.398438 -4.351562 0.457031 -4.394531 0.5625 -4.375 C 0.664062 -4.363281 0.710938 -4.304688 0.703125 -4.203125 L 0.359375 -2.15625 C 0.335938 -2.050781 0.273438 -2.003906 0.171875 -2.015625 C 0.0664062 -2.035156 0.0234375 -2.097656 0.046875 -2.203125 L 0.171875 -2.921875 C 0.179688 -3.023438 0.132812 -3.085938 0.03125 -3.109375 L -6.203125 -4.140625 C -6.304688 -4.160156 -6.363281 -4.117188 -6.375 -4.015625 L -6.734375 -1.859375 C -6.753906 -1.765625 -6.710938 -1.707031 -6.609375 -1.6875 L -5.4375 -1.5 C -5.332031 -1.476562 -5.285156 -1.414062 -5.296875 -1.3125 C -5.316406 -1.207031 -5.378906 -1.164062 -5.484375 -1.1875 Z M -5.484375 -1.1875 "/></g></g></g><g fill="#ffffff" fill-opacity="1"><g transform="translate(258.27925, 132.020588)"><g><path d="M 7.90625 1.21875 C 8.082031 1.9375 8.035156 2.550781 7.765625 3.0625 C 7.484375 3.5625 7.109375 3.867188 6.640625 3.984375 C 6.171875 4.109375 5.722656 4.0625 5.296875 3.84375 C 4.867188 3.625 4.46875 3.332031 4.09375 2.96875 L 3.078125 1.84375 C 2.742188 1.476562 2.390625 1.175781 2.015625 0.9375 C 1.640625 0.707031 1.28125 0.640625 0.9375 0.734375 L 0.6875 0.796875 C 0.582031 0.816406 0.539062 0.878906 0.5625 0.984375 L 1.53125 4.796875 C 1.550781 4.898438 1.613281 4.941406 1.71875 4.921875 L 2.828125 4.640625 C 2.929688 4.609375 2.992188 4.644531 3.015625 4.75 C 3.046875 4.84375 3.007812 4.90625 2.90625 4.9375 L 1.5 5.296875 C 1.394531 5.316406 1.328125 5.28125 1.296875 5.1875 L 0.1875 0.75 C 0.164062 0.65625 0.207031 0.597656 0.3125 0.578125 L 0.859375 0.4375 C 1.398438 0.300781 1.992188 0.492188 2.640625 1.015625 C 2.835938 1.148438 3.023438 1.3125 3.203125 1.5 L 4.234375 2.609375 C 4.566406 2.984375 4.929688 3.285156 5.328125 3.515625 C 5.722656 3.742188 6.125 3.804688 6.53125 3.703125 C 6.9375 3.597656 7.253906 3.328125 7.484375 2.890625 C 7.710938 2.441406 7.753906 1.910156 7.609375 1.296875 C 7.503906 0.890625 7.320312 0.507812 7.0625 0.15625 C 6.8125 -0.1875 6.5 -0.460938 6.125 -0.671875 C 6.03125 -0.734375 6.003906 -0.796875 6.046875 -0.859375 C 6.085938 -0.921875 6.125 -0.957031 6.15625 -0.96875 C 6.195312 -0.976562 6.242188 -0.96875 6.296875 -0.9375 C 7.128906 -0.414062 7.664062 0.300781 7.90625 1.21875 Z M 7.90625 1.21875 "/></g></g></g><g fill="#ffffff" fill-opacity="1"><g transform="translate(260.083043, 139.663749)"><g><path d="M 0.984375 1.359375 C 1.609375 0.785156 2.503906 0.453125 3.671875 0.359375 C 4.835938 0.265625 5.769531 0.453125 6.46875 0.921875 C 7.164062 1.390625 7.546875 2.015625 7.609375 2.796875 C 7.671875 3.585938 7.394531 4.269531 6.78125 4.84375 C 6.164062 5.414062 5.273438 5.75 4.109375 5.84375 C 2.941406 5.9375 2.003906 5.75 1.296875 5.28125 C 0.597656 4.8125 0.21875 4.179688 0.15625 3.390625 C 0.09375 2.609375 0.367188 1.929688 0.984375 1.359375 Z M 6.28125 1.15625 C 5.644531 0.738281 4.785156 0.570312 3.703125 0.65625 C 2.617188 0.75 1.796875 1.050781 1.234375 1.5625 C 0.671875 2.082031 0.414062 2.6875 0.46875 3.375 C 0.519531 4.0625 0.863281 4.613281 1.5 5.03125 C 2.132812 5.445312 2.992188 5.609375 4.078125 5.515625 C 5.160156 5.429688 5.984375 5.132812 6.546875 4.625 C 7.109375 4.113281 7.363281 3.515625 7.3125 2.828125 C 7.257812 2.140625 6.914062 1.582031 6.28125 1.15625 Z M 6.28125 1.15625 "/></g></g></g><g fill="#ffffff" fill-opacity="1"><g transform="translate(260.585243, 148.110213)"><g><path d="M 7.046875 3.75 C 6.984375 4.488281 6.742188 5.050781 6.328125 5.4375 C 5.890625 5.832031 5.429688 6.007812 4.953125 5.96875 C 4.472656 5.925781 4.066406 5.726562 3.734375 5.375 C 3.398438 5.03125 3.117188 4.617188 2.890625 4.140625 L 2.296875 2.75 C 2.085938 2.300781 1.847656 1.90625 1.578125 1.5625 C 1.304688 1.21875 0.992188 1.03125 0.640625 1 L 0.390625 0.984375 C 0.285156 0.972656 0.226562 1.019531 0.21875 1.125 L -0.125 5.046875 C -0.132812 5.148438 -0.0859375 5.207031 0.015625 5.21875 L 1.15625 5.3125 C 1.257812 5.320312 1.304688 5.378906 1.296875 5.484375 C 1.285156 5.585938 1.226562 5.632812 1.125 5.625 L -0.328125 5.5 C -0.429688 5.488281 -0.476562 5.429688 -0.46875 5.328125 L -0.0625 0.78125 C -0.0625 0.675781 -0.0078125 0.628906 0.09375 0.640625 L 0.65625 0.6875 C 1.21875 0.738281 1.722656 1.117188 2.171875 1.828125 C 2.296875 2.023438 2.410156 2.234375 2.515625 2.453125 L 3.140625 3.859375 C 3.328125 4.328125 3.570312 4.734375 3.875 5.078125 C 4.175781 5.421875 4.535156 5.609375 4.953125 5.640625 C 5.367188 5.679688 5.757812 5.53125 6.125 5.1875 C 6.488281 4.84375 6.695312 4.351562 6.75 3.71875 C 6.789062 3.300781 6.75 2.882812 6.625 2.46875 C 6.5 2.0625 6.289062 1.695312 6 1.375 C 5.945312 1.289062 5.945312 1.222656 6 1.171875 C 6.050781 1.128906 6.09375 1.109375 6.125 1.109375 C 6.164062 1.109375 6.203125 1.132812 6.234375 1.1875 C 6.859375 1.957031 7.128906 2.8125 7.046875 3.75 Z M 7.046875 3.75 "/></g></g></g><g fill="#ffffff" fill-opacity="1"><g transform="translate(259.747891, 155.937774)"><g><path d="M 1.734375 0.625 C 1.753906 0.601562 1.773438 0.59375 1.796875 0.59375 C 1.828125 0.601562 1.859375 0.625 1.890625 0.65625 C 2.628906 1.476562 3.113281 1.988281 3.34375 2.1875 C 4.1875 2.957031 5.296875 3.519531 6.671875 3.875 C 6.773438 3.894531 6.8125 3.953125 6.78125 4.046875 C 6.757812 4.148438 6.695312 4.191406 6.59375 4.171875 C 5.40625 3.859375 4.460938 3.441406 3.765625 2.921875 C 3.410156 2.648438 3.109375 2.394531 2.859375 2.15625 C 2.609375 1.914062 2.320312 1.601562 2 1.21875 C 1.90625 1.144531 1.84375 1.164062 1.8125 1.28125 L 0.96875 4.625 C 0.945312 4.71875 0.988281 4.773438 1.09375 4.796875 L 3.96875 5.53125 C 4.0625 5.550781 4.09375 5.613281 4.0625 5.71875 C 4.039062 5.820312 3.984375 5.863281 3.890625 5.84375 L 1.015625 5.109375 C 0.910156 5.085938 0.847656 5.125 0.828125 5.21875 L 0.625 6.03125 C 0.59375 6.132812 0.523438 6.171875 0.421875 6.140625 C 0.328125 6.117188 0.296875 6.054688 0.328125 5.953125 L 0.53125 5.140625 C 0.550781 5.046875 0.507812 4.984375 0.40625 4.953125 L -1.109375 4.578125 C -1.210938 4.546875 -1.25 4.476562 -1.21875 4.375 C -1.195312 4.269531 -1.132812 4.234375 -1.03125 4.265625 L 0.484375 4.640625 C 0.585938 4.671875 0.648438 4.640625 0.671875 4.546875 L 1.640625 0.71875 C 1.660156 0.664062 1.691406 0.632812 1.734375 0.625 Z M 1.734375 0.625 "/></g></g></g><g fill="#ffffff" fill-opacity="1"><g transform="translate(22.466259, 280.666623)"><g><path d="M 0.21875 0 L 6.75 -14.921875 L 7.078125 -14.921875 L 13.625 0 L 11.21875 0 L 9.5625 -3.953125 L 3.03125 -3.953125 L 1.40625 0 Z M 3.359375 -4.796875 L 9.21875 -4.796875 L 6.3125 -11.921875 Z M 3.359375 -4.796875 "/></g></g></g><g fill="#ffffff" fill-opacity="1"><g transform="translate(40.921798, 280.666623)"><g><path d="M 1.984375 0 L 1.984375 -14.5625 L 6.140625 -14.5625 C 7.867188 -14.5625 9.429688 -14.195312 10.828125 -13.46875 C 11.578125 -13.082031 12.226562 -12.601562 12.78125 -12.03125 C 13.34375 -11.457031 13.789062 -10.726562 14.125 -9.84375 C 14.457031 -8.957031 14.625 -7.972656 14.625 -6.890625 C 14.625 -5.328125 14.238281 -4.015625 13.46875 -2.953125 C 12.039062 -0.984375 9.738281 0 6.5625 0 Z M 6.109375 -0.75 C 7.972656 -0.75 9.46875 -1.296875 10.59375 -2.390625 C 11.726562 -3.492188 12.296875 -5.109375 12.296875 -7.234375 C 12.296875 -8.878906 11.847656 -10.285156 10.953125 -11.453125 C 10.054688 -12.617188 8.898438 -13.390625 7.484375 -13.765625 C 6.203125 -13.765625 5.085938 -13.613281 4.140625 -13.3125 L 4.140625 -0.953125 C 4.609375 -0.816406 5.265625 -0.75 6.109375 -0.75 Z M 6.109375 -0.75 "/></g></g></g><g fill="#ffffff" fill-opacity="1"><g transform="translate(61.115032, 280.666623)"><g><path d="M 1.984375 0 L 1.984375 -14.5625 L 6.140625 -14.5625 C 7.867188 -14.5625 9.429688 -14.195312 10.828125 -13.46875 C 11.578125 -13.082031 12.226562 -12.601562 12.78125 -12.03125 C 13.34375 -11.457031 13.789062 -10.726562 14.125 -9.84375 C 14.457031 -8.957031 14.625 -7.972656 14.625 -6.890625 C 14.625 -5.328125 14.238281 -4.015625 13.46875 -2.953125 C 12.039062 -0.984375 9.738281 0 6.5625 0 Z M 6.109375 -0.75 C 7.972656 -0.75 9.46875 -1.296875 10.59375 -2.390625 C 11.726562 -3.492188 12.296875 -5.109375 12.296875 -7.234375 C 12.296875 -8.878906 11.847656 -10.285156 10.953125 -11.453125 C 10.054688 -12.617188 8.898438 -13.390625 7.484375 -13.765625 C 6.203125 -13.765625 5.085938 -13.613281 4.140625 -13.3125 L 4.140625 -0.953125 C 4.609375 -0.816406 5.265625 -0.75 6.109375 -0.75 Z M 6.109375 -0.75 "/></g></g></g><g fill="#ffffff" fill-opacity="1"><g transform="translate(81.308262, 280.666623)"><g/></g></g><g fill="#ffffff" fill-opacity="1"><g transform="translate(91.427293, 280.666623)"><g><path d="M 7.546875 0 L 5.40625 0 L 5.40625 -5.40625 L 0.4375 -14.5625 L 2.84375 -14.5625 L 6.90625 -6.203125 L 10.71875 -14.5625 L 11.8125 -14.5625 L 7.546875 -5.515625 Z M 7.546875 0 "/></g></g></g><g fill="#ffffff" fill-opacity="1"><g transform="translate(108.299117, 280.666623)"><g><path d="M 8.609375 -14.828125 C 10.515625 -14.828125 12.085938 -14.195312 13.328125 -12.9375 C 14.578125 -11.6875 15.203125 -9.945312 15.203125 -7.71875 C 15.203125 -6.28125 14.953125 -5.019531 14.453125 -3.9375 C 13.953125 -2.863281 13.300781 -2.035156 12.5 -1.453125 C 10.925781 -0.304688 9.191406 0.265625 7.296875 0.265625 C 5.410156 0.265625 3.847656 -0.367188 2.609375 -1.640625 C 1.367188 -2.910156 0.75 -4.660156 0.75 -6.890625 C 0.75 -8.046875 0.910156 -9.085938 1.234375 -10.015625 C 1.566406 -10.953125 2 -11.710938 2.53125 -12.296875 C 3.070312 -12.878906 3.695312 -13.367188 4.40625 -13.765625 C 5.695312 -14.472656 7.097656 -14.828125 8.609375 -14.828125 Z M 4.1875 -2.515625 C 4.5625 -1.867188 5.070312 -1.363281 5.71875 -1 C 6.363281 -0.644531 7.109375 -0.46875 7.953125 -0.46875 C 8.796875 -0.46875 9.546875 -0.675781 10.203125 -1.09375 C 10.867188 -1.519531 11.382812 -2.078125 11.75 -2.765625 C 12.5 -4.148438 12.875 -5.632812 12.875 -7.21875 C 12.875 -9.164062 12.484375 -10.734375 11.703125 -11.921875 C 10.835938 -13.253906 9.40625 -13.921875 7.40625 -13.921875 C 5.988281 -13.421875 4.910156 -12.5625 4.171875 -11.34375 C 3.441406 -10.132812 3.078125 -8.757812 3.078125 -7.21875 C 3.078125 -5.34375 3.445312 -3.773438 4.1875 -2.515625 Z M 4.1875 -2.515625 "/></g></g></g><g fill="#ffffff" fill-opacity="1"><g transform="translate(128.866288, 280.666623)"><g><path d="M 12.796875 -14.5625 L 12.796875 -5.625 C 12.796875 -4.269531 12.648438 -3.242188 12.359375 -2.546875 C 12.234375 -2.242188 12.023438 -1.894531 11.734375 -1.5 C 11.453125 -1.113281 11.117188 -0.804688 10.734375 -0.578125 C 9.765625 -0.015625 8.554688 0.265625 7.109375 0.265625 C 3.472656 0.265625 1.65625 -1.601562 1.65625 -5.34375 L 1.65625 -14.5625 L 3.890625 -14.5625 L 3.890625 -5.171875 C 3.890625 -4.742188 3.894531 -4.394531 3.90625 -4.125 C 3.925781 -3.863281 4.003906 -3.488281 4.140625 -3 C 4.285156 -2.519531 4.476562 -2.132812 4.71875 -1.84375 C 4.957031 -1.550781 5.335938 -1.285156 5.859375 -1.046875 C 6.378906 -0.816406 7 -0.703125 7.71875 -0.703125 C 10.46875 -0.703125 11.84375 -2.171875 11.84375 -5.109375 L 11.84375 -14.5625 Z M 12.796875 -14.5625 "/></g></g></g><g fill="#ffffff" fill-opacity="1"><g transform="translate(147.937729, 280.666623)"><g><path d="M 4.140625 -6.953125 L 4.140625 0 L 1.984375 0 L 1.984375 -14.5625 L 6.734375 -14.5625 C 8.210938 -14.5625 9.425781 -14.226562 10.375 -13.5625 C 11.320312 -12.90625 11.796875 -12.035156 11.796875 -10.953125 C 11.796875 -9.878906 11.414062 -9.03125 10.65625 -8.40625 C 9.90625 -7.789062 8.882812 -7.363281 7.59375 -7.125 L 13.484375 0 L 10.9375 0.3125 L 5.828125 -6.953125 Z M 4.140625 -7.609375 L 5.546875 -7.609375 C 8.179688 -7.609375 9.5 -8.648438 9.5 -10.734375 C 9.5 -11.085938 9.410156 -11.484375 9.234375 -11.921875 C 8.898438 -12.847656 8.179688 -13.457031 7.078125 -13.75 C 6.085938 -13.75 5.109375 -13.625 4.140625 -13.375 Z M 4.140625 -7.609375 "/></g></g></g><g fill="#ffffff" fill-opacity="1"><g transform="translate(166.591242, 280.666623)"><g/></g></g><g fill="#ffffff" fill-opacity="1"><g transform="translate(176.710279, 280.666623)"><g><path d="M 8.609375 -14.828125 C 10.515625 -14.828125 12.085938 -14.195312 13.328125 -12.9375 C 14.578125 -11.6875 15.203125 -9.945312 15.203125 -7.71875 C 15.203125 -6.28125 14.953125 -5.019531 14.453125 -3.9375 C 13.953125 -2.863281 13.300781 -2.035156 12.5 -1.453125 C 10.925781 -0.304688 9.191406 0.265625 7.296875 0.265625 C 5.410156 0.265625 3.847656 -0.367188 2.609375 -1.640625 C 1.367188 -2.910156 0.75 -4.660156 0.75 -6.890625 C 0.75 -8.046875 0.910156 -9.085938 1.234375 -10.015625 C 1.566406 -10.953125 2 -11.710938 2.53125 -12.296875 C 3.070312 -12.878906 3.695312 -13.367188 4.40625 -13.765625 C 5.695312 -14.472656 7.097656 -14.828125 8.609375 -14.828125 Z M 4.1875 -2.515625 C 4.5625 -1.867188 5.070312 -1.363281 5.71875 -1 C 6.363281 -0.644531 7.109375 -0.46875 7.953125 -0.46875 C 8.796875 -0.46875 9.546875 -0.675781 10.203125 -1.09375 C 10.867188 -1.519531 11.382812 -2.078125 11.75 -2.765625 C 12.5 -4.148438 12.875 -5.632812 12.875 -7.21875 C 12.875 -9.164062 12.484375 -10.734375 11.703125 -11.921875 C 10.835938 -13.253906 9.40625 -13.921875 7.40625 -13.921875 C 5.988281 -13.421875 4.910156 -12.5625 4.171875 -11.34375 C 3.441406 -10.132812 3.078125 -8.757812 3.078125 -7.21875 C 3.078125 -5.34375 3.445312 -3.773438 4.1875 -2.515625 Z M 4.1875 -2.515625 "/></g></g></g><g fill="#ffffff" fill-opacity="1"><g transform="translate(197.277451, 280.666623)"><g><path d="M 17.515625 -14.5625 L 18.609375 -14.5625 L 13.15625 0.328125 L 12.796875 0.328125 L 9.4375 -8.6875 L 6.140625 0.328125 L 5.78125 0.328125 L 0.21875 -14.5625 L 2.625 -14.5625 L 6.484375 -2.640625 L 8.953125 -9.984375 L 7.234375 -14.5625 L 9.640625 -14.5625 L 13.515625 -2.640625 Z M 17.515625 -14.5625 "/></g></g></g><g fill="#ffffff" fill-opacity="1"><g transform="translate(220.726096, 280.666623)"><g><path d="M 13.046875 0.234375 L 12.671875 0.234375 L 3.03125 -11.8125 L 2.953125 -11.8125 L 2.953125 0 L 1.984375 0 L 1.984375 -14.5625 L 3.609375 -14.5625 L 11.984375 -3.984375 L 12.078125 -3.984375 L 12.078125 -14.5625 L 13.046875 -14.5625 Z M 13.046875 0.234375 "/></g></g></g><g fill="#ffffff" fill-opacity="1"><g transform="translate(240.36942, 280.666623)"><g/></g></g><g fill="#ffffff" fill-opacity="1"><g transform="translate(250.488446, 280.666623)"><g><path d="M 4 -14.5625 L 4 0 L 1.984375 0 L 1.984375 -14.5625 Z M 4 -14.5625 "/></g></g></g><g fill="#ffffff" fill-opacity="1"><g transform="translate(261.091396, 280.666623)"><g><path d="M 9.75 -3.453125 L 14.609375 -14.5625 L 16.859375 -14.5625 L 17.671875 0 L 15.421875 0 L 14.828125 -12.515625 L 14.734375 -12.515625 L 9.203125 0 L 8.890625 0 L 3.453125 -12.015625 L 3.359375 -12.015625 L 2.765625 0 L 1.796875 0 L 2.625 -14.5625 L 4.65625 -14.5625 Z M 9.75 -3.453125 "/></g></g></g><g fill="#ffffff" fill-opacity="1"><g transform="translate(285.265917, 280.666623)"><g><path d="M 0.21875 0 L 6.75 -14.921875 L 7.078125 -14.921875 L 13.625 0 L 11.21875 0 L 9.5625 -3.953125 L 3.03125 -3.953125 L 1.40625 0 Z M 3.359375 -4.796875 L 9.21875 -4.796875 L 6.3125 -11.921875 Z M 3.359375 -4.796875 "/></g></g></g><g fill="#ffffff" fill-opacity="1"><g transform="translate(303.721459, 280.666623)"><g><path d="M 11.203125 -6.265625 L 13.328125 -6.265625 L 13.328125 -0.484375 C 12.066406 0.015625 10.550781 0.265625 8.78125 0.265625 C 6.625 0.265625 4.769531 -0.304688 3.21875 -1.453125 C 2.445312 -2.023438 1.832031 -2.773438 1.375 -3.703125 C 0.925781 -4.640625 0.703125 -5.671875 0.703125 -6.796875 C 0.703125 -7.921875 0.878906 -8.9375 1.234375 -9.84375 C 1.585938 -10.75 2.046875 -11.5 2.609375 -12.09375 C 3.171875 -12.695312 3.828125 -13.210938 4.578125 -13.640625 C 5.972656 -14.429688 7.503906 -14.828125 9.171875 -14.828125 C 9.816406 -14.828125 10.515625 -14.753906 11.265625 -14.609375 C 12.015625 -14.460938 12.585938 -14.304688 12.984375 -14.140625 L 12.765625 -12.671875 C 10.785156 -13.503906 9.140625 -13.921875 7.828125 -13.921875 C 6.347656 -13.546875 5.175781 -12.765625 4.3125 -11.578125 C 3.457031 -10.390625 3.03125 -8.9375 3.03125 -7.21875 C 3.03125 -5.070312 3.59375 -3.414062 4.71875 -2.25 C 5.851562 -1.082031 7.347656 -0.5 9.203125 -0.5 C 9.929688 -0.5 10.597656 -0.570312 11.203125 -0.71875 Z M 11.203125 -6.265625 "/></g></g></g><g fill="#ffffff" fill-opacity="1"><g transform="translate(323.298797, 280.666623)"><g><path d="M 1.984375 0 L 1.984375 -14.5625 L 10.796875 -14.5625 L 10.578125 -13.09375 L 6.484375 -13.765625 C 5.765625 -13.765625 4.972656 -13.640625 4.109375 -13.390625 L 4.109375 -8.046875 L 9 -8.046875 L 9 -7.21875 L 4.109375 -7.21875 L 4.109375 -0.796875 L 10.9375 -1.46875 L 10.71875 0 Z M 1.984375 0 "/></g></g></g><g fill="#ffffff" fill-opacity="1"><g transform="translate(340.280592, 280.666623)"><g><path d="M 3.5625 -12.03125 C 3.5625 -11.382812 3.8125 -10.785156 4.3125 -10.234375 C 4.820312 -9.691406 5.441406 -9.207031 6.171875 -8.78125 C 6.898438 -8.363281 7.625 -7.9375 8.34375 -7.5 C 9.0625 -7.070312 9.671875 -6.539062 10.171875 -5.90625 C 10.679688 -5.28125 10.9375 -4.585938 10.9375 -3.828125 C 10.9375 -2.628906 10.488281 -1.644531 9.59375 -0.875 C 8.707031 -0.113281 7.507812 0.265625 6 0.265625 C 4.488281 0.265625 2.992188 -0.0195312 1.515625 -0.59375 L 1.515625 -1.625 C 3.015625 -0.875 4.285156 -0.5 5.328125 -0.5 C 6.378906 -0.5 7.195312 -0.753906 7.78125 -1.265625 C 8.375 -1.785156 8.671875 -2.5 8.671875 -3.40625 C 8.671875 -4.019531 8.425781 -4.582031 7.9375 -5.09375 C 7.457031 -5.601562 6.867188 -6.039062 6.171875 -6.40625 C 5.484375 -6.78125 4.796875 -7.164062 4.109375 -7.5625 C 3.421875 -7.957031 2.832031 -8.457031 2.34375 -9.0625 C 1.863281 -9.675781 1.625 -10.414062 1.625 -11.28125 C 1.625 -12.144531 2.007812 -12.953125 2.78125 -13.703125 C 3.550781 -14.453125 4.695312 -14.828125 6.21875 -14.828125 C 7.21875 -14.828125 8.484375 -14.597656 10.015625 -14.140625 L 9.796875 -12.65625 C 7.804688 -13.5 6.109375 -13.921875 4.703125 -13.921875 C 3.941406 -13.554688 3.5625 -12.925781 3.5625 -12.03125 Z M 3.5625 -12.03125 "/></g></g></g><g fill="#ffffff" fill-opacity="1"><g transform="translate(47.907663, 309.166621)"><g><path d="M 4.109375 -8.046875 L 8.78125 -8.046875 L 8.78125 -7.21875 L 4.109375 -7.21875 L 4.109375 0 L 1.984375 0 L 1.984375 -14.5625 L 10.578125 -14.5625 L 10.578125 -13.09375 L 6.515625 -13.765625 C 5.773438 -13.765625 4.972656 -13.640625 4.109375 -13.390625 Z M 4.109375 -8.046875 "/></g></g></g><g fill="#ffffff" fill-opacity="1"><g transform="translate(63.107794, 309.166621)"><g><path d="M 4.140625 -6.953125 L 4.140625 0 L 1.984375 0 L 1.984375 -14.5625 L 6.734375 -14.5625 C 8.210938 -14.5625 9.425781 -14.226562 10.375 -13.5625 C 11.320312 -12.90625 11.796875 -12.035156 11.796875 -10.953125 C 11.796875 -9.878906 11.414062 -9.03125 10.65625 -8.40625 C 9.90625 -7.789062 8.882812 -7.363281 7.59375 -7.125 L 13.484375 0 L 10.9375 0.3125 L 5.828125 -6.953125 Z M 4.140625 -7.609375 L 5.546875 -7.609375 C 8.179688 -7.609375 9.5 -8.648438 9.5 -10.734375 C 9.5 -11.085938 9.410156 -11.484375 9.234375 -11.921875 C 8.898438 -12.847656 8.179688 -13.457031 7.078125 -13.75 C 6.085938 -13.75 5.109375 -13.625 4.140625 -13.375 Z M 4.140625 -7.609375 "/></g></g></g><g fill="#ffffff" fill-opacity="1"><g transform="translate(81.761304, 309.166621)"><g><path d="M 8.609375 -14.828125 C 10.515625 -14.828125 12.085938 -14.195312 13.328125 -12.9375 C 14.578125 -11.6875 15.203125 -9.945312 15.203125 -7.71875 C 15.203125 -6.28125 14.953125 -5.019531 14.453125 -3.9375 C 13.953125 -2.863281 13.300781 -2.035156 12.5 -1.453125 C 10.925781 -0.304688 9.191406 0.265625 7.296875 0.265625 C 5.410156 0.265625 3.847656 -0.367188 2.609375 -1.640625 C 1.367188 -2.910156 0.75 -4.660156 0.75 -6.890625 C 0.75 -8.046875 0.910156 -9.085938 1.234375 -10.015625 C 1.566406 -10.953125 2 -11.710938 2.53125 -12.296875 C 3.070312 -12.878906 3.695312 -13.367188 4.40625 -13.765625 C 5.695312 -14.472656 7.097656 -14.828125 8.609375 -14.828125 Z M 4.1875 -2.515625 C 4.5625 -1.867188 5.070312 -1.363281 5.71875 -1 C 6.363281 -0.644531 7.109375 -0.46875 7.953125 -0.46875 C 8.796875 -0.46875 9.546875 -0.675781 10.203125 -1.09375 C 10.867188 -1.519531 11.382812 -2.078125 11.75 -2.765625 C 12.5 -4.148438 12.875 -5.632812 12.875 -7.21875 C 12.875 -9.164062 12.484375 -10.734375 11.703125 -11.921875 C 10.835938 -13.253906 9.40625 -13.921875 7.40625 -13.921875 C 5.988281 -13.421875 4.910156 -12.5625 4.171875 -11.34375 C 3.441406 -10.132812 3.078125 -8.757812 3.078125 -7.21875 C 3.078125 -5.34375 3.445312 -3.773438 4.1875 -2.515625 Z M 4.1875 -2.515625 "/></g></g></g><g fill="#ffffff" fill-opacity="1"><g transform="translate(102.32847, 309.166621)"><g><path d="M 9.75 -3.453125 L 14.609375 -14.5625 L 16.859375 -14.5625 L 17.671875 0 L 15.421875 0 L 14.828125 -12.515625 L 14.734375 -12.515625 L 9.203125 0 L 8.890625 0 L 3.453125 -12.015625 L 3.359375 -12.015625 L 2.765625 0 L 1.796875 0 L 2.625 -14.5625 L 4.65625 -14.5625 Z M 9.75 -3.453125 "/></g></g></g><g fill="#ffffff" fill-opacity="1"><g transform="translate(126.503003, 309.166621)"><g/></g></g><g fill="#ffffff" fill-opacity="1"><g transform="translate(136.622034, 309.166621)"><g><path d="M 8.609375 -14.828125 C 10.515625 -14.828125 12.085938 -14.195312 13.328125 -12.9375 C 14.578125 -11.6875 15.203125 -9.945312 15.203125 -7.71875 C 15.203125 -6.28125 14.953125 -5.019531 14.453125 -3.9375 C 13.953125 -2.863281 13.300781 -2.035156 12.5 -1.453125 C 10.925781 -0.304688 9.191406 0.265625 7.296875 0.265625 C 5.410156 0.265625 3.847656 -0.367188 2.609375 -1.640625 C 1.367188 -2.910156 0.75 -4.660156 0.75 -6.890625 C 0.75 -8.046875 0.910156 -9.085938 1.234375 -10.015625 C 1.566406 -10.953125 2 -11.710938 2.53125 -12.296875 C 3.070312 -12.878906 3.695312 -13.367188 4.40625 -13.765625 C 5.695312 -14.472656 7.097656 -14.828125 8.609375 -14.828125 Z M 4.1875 -2.515625 C 4.5625 -1.867188 5.070312 -1.363281 5.71875 -1 C 6.363281 -0.644531 7.109375 -0.46875 7.953125 -0.46875 C 8.796875 -0.46875 9.546875 -0.675781 10.203125 -1.09375 C 10.867188 -1.519531 11.382812 -2.078125 11.75 -2.765625 C 12.5 -4.148438 12.875 -5.632812 12.875 -7.21875 C 12.875 -9.164062 12.484375 -10.734375 11.703125 -11.921875 C 10.835938 -13.253906 9.40625 -13.921875 7.40625 -13.921875 C 5.988281 -13.421875 4.910156 -12.5625 4.171875 -11.34375 C 3.441406 -10.132812 3.078125 -8.757812 3.078125 -7.21875 C 3.078125 -5.34375 3.445312 -3.773438 4.1875 -2.515625 Z M 4.1875 -2.515625 "/></g></g></g><g fill="#ffffff" fill-opacity="1"><g transform="translate(157.1892, 309.166621)"><g><path d="M 12.796875 -14.5625 L 12.796875 -5.625 C 12.796875 -4.269531 12.648438 -3.242188 12.359375 -2.546875 C 12.234375 -2.242188 12.023438 -1.894531 11.734375 -1.5 C 11.453125 -1.113281 11.117188 -0.804688 10.734375 -0.578125 C 9.765625 -0.015625 8.554688 0.265625 7.109375 0.265625 C 3.472656 0.265625 1.65625 -1.601562 1.65625 -5.34375 L 1.65625 -14.5625 L 3.890625 -14.5625 L 3.890625 -5.171875 C 3.890625 -4.742188 3.894531 -4.394531 3.90625 -4.125 C 3.925781 -3.863281 4.003906 -3.488281 4.140625 -3 C 4.285156 -2.519531 4.476562 -2.132812 4.71875 -1.84375 C 4.957031 -1.550781 5.335938 -1.285156 5.859375 -1.046875 C 6.378906 -0.816406 7 -0.703125 7.71875 -0.703125 C 10.46875 -0.703125 11.84375 -2.171875 11.84375 -5.109375 L 11.84375 -14.5625 Z M 12.796875 -14.5625 "/></g></g></g><g fill="#ffffff" fill-opacity="1"><g transform="translate(176.260641, 309.166621)"><g><path d="M 4.140625 -6.953125 L 4.140625 0 L 1.984375 0 L 1.984375 -14.5625 L 6.734375 -14.5625 C 8.210938 -14.5625 9.425781 -14.226562 10.375 -13.5625 C 11.320312 -12.90625 11.796875 -12.035156 11.796875 -10.953125 C 11.796875 -9.878906 11.414062 -9.03125 10.65625 -8.40625 C 9.90625 -7.789062 8.882812 -7.363281 7.59375 -7.125 L 13.484375 0 L 10.9375 0.3125 L 5.828125 -6.953125 Z M 4.140625 -7.609375 L 5.546875 -7.609375 C 8.179688 -7.609375 9.5 -8.648438 9.5 -10.734375 C 9.5 -11.085938 9.410156 -11.484375 9.234375 -11.921875 C 8.898438 -12.847656 8.179688 -13.457031 7.078125 -13.75 C 6.085938 -13.75 5.109375 -13.625 4.140625 -13.375 Z M 4.140625 -7.609375 "/></g></g></g><g fill="#ffffff" fill-opacity="1"><g transform="translate(194.914154, 309.166621)"><g/></g></g><g fill="#ffffff" fill-opacity="1"><g transform="translate(205.033191, 309.166621)"><g><path d="M 1.984375 0 L 1.984375 -14.5625 L 10.796875 -14.5625 L 10.578125 -13.09375 L 6.484375 -13.765625 C 5.765625 -13.765625 4.972656 -13.640625 4.109375 -13.390625 L 4.109375 -8.046875 L 9 -8.046875 L 9 -7.21875 L 4.109375 -7.21875 L 4.109375 -0.796875 L 10.9375 -1.46875 L 10.71875 0 Z M 1.984375 0 "/></g></g></g><g fill="#ffffff" fill-opacity="1"><g transform="translate(222.014997, 309.166621)"><g><path d="M 6.75 0.359375 L 0.21875 -14.5625 L 2.625 -14.5625 L 7.453125 -2.640625 L 11.8125 -14.5625 L 12.90625 -14.5625 L 7.109375 0.359375 Z M 6.75 0.359375 "/></g></g></g><g fill="#ffffff" fill-opacity="1"><g transform="translate(239.766671, 309.166621)"><g><path d="M 1.984375 0 L 1.984375 -14.5625 L 10.796875 -14.5625 L 10.578125 -13.09375 L 6.484375 -13.765625 C 5.765625 -13.765625 4.972656 -13.640625 4.109375 -13.390625 L 4.109375 -8.046875 L 9 -8.046875 L 9 -7.21875 L 4.109375 -7.21875 L 4.109375 -0.796875 L 10.9375 -1.46875 L 10.71875 0 Z M 1.984375 0 "/></g></g></g><g fill="#ffffff" fill-opacity="1"><g transform="translate(256.748478, 309.166621)"><g><path d="M 13.046875 0.234375 L 12.671875 0.234375 L 3.03125 -11.8125 L 2.953125 -11.8125 L 2.953125 0 L 1.984375 0 L 1.984375 -14.5625 L 3.609375 -14.5625 L 11.984375 -3.984375 L 12.078125 -3.984375 L 12.078125 -14.5625 L 13.046875 -14.5625 Z M 13.046875 0.234375 "/></g></g></g><g fill="#ffffff" fill-opacity="1"><g transform="translate(276.391802, 309.166621)"><g><path d="M 6.953125 0 L 4.8125 0 L 4.8125 -13.515625 C 4.3125 -13.628906 3.816406 -13.6875 3.328125 -13.6875 L 0.359375 -13 L 0.21875 -14.5625 L 11.546875 -14.5625 L 11.4375 -13 L 8.453125 -13.6875 C 7.953125 -13.6875 7.453125 -13.628906 6.953125 -13.515625 Z M 6.953125 0 "/></g></g></g><g fill="#ffffff" fill-opacity="1"><g transform="translate(292.779717, 309.166621)"><g><path d="M 3.5625 -12.03125 C 3.5625 -11.382812 3.8125 -10.785156 4.3125 -10.234375 C 4.820312 -9.691406 5.441406 -9.207031 6.171875 -8.78125 C 6.898438 -8.363281 7.625 -7.9375 8.34375 -7.5 C 9.0625 -7.070312 9.671875 -6.539062 10.171875 -5.90625 C 10.679688 -5.28125 10.9375 -4.585938 10.9375 -3.828125 C 10.9375 -2.628906 10.488281 -1.644531 9.59375 -0.875 C 8.707031 -0.113281 7.507812 0.265625 6 0.265625 C 4.488281 0.265625 2.992188 -0.0195312 1.515625 -0.59375 L 1.515625 -1.625 C 3.015625 -0.875 4.285156 -0.5 5.328125 -0.5 C 6.378906 -0.5 7.195312 -0.753906 7.78125 -1.265625 C 8.375 -1.785156 8.671875 -2.5 8.671875 -3.40625 C 8.671875 -4.019531 8.425781 -4.582031 7.9375 -5.09375 C 7.457031 -5.601562 6.867188 -6.039062 6.171875 -6.40625 C 5.484375 -6.78125 4.796875 -7.164062 4.109375 -7.5625 C 3.421875 -7.957031 2.832031 -8.457031 2.34375 -9.0625 C 1.863281 -9.675781 1.625 -10.414062 1.625 -11.28125 C 1.625 -12.144531 2.007812 -12.953125 2.78125 -13.703125 C 3.550781 -14.453125 4.695312 -14.828125 6.21875 -14.828125 C 7.21875 -14.828125 8.484375 -14.597656 10.015625 -14.140625 L 9.796875 -12.65625 C 7.804688 -13.5 6.109375 -13.921875 4.703125 -13.921875 C 3.941406 -13.554688 3.5625 -12.925781 3.5625 -12.03125 Z M 3.5625 -12.03125 "/></g></g></g><g fill="#ffffff" fill-opacity="1"><g transform="translate(309.629539, 309.166621)"><g><path d="M 3.625 -3.46875 L 2.96875 -14.359375 L 5.0625 -14.359375 L 4.40625 -3.46875 Z M 5.21875 -0.890625 C 5.21875 -0.546875 5.09375 -0.273438 4.84375 -0.078125 C 4.59375 0.109375 4.316406 0.203125 4.015625 0.203125 C 3.710938 0.203125 3.4375 0.109375 3.1875 -0.078125 C 2.9375 -0.265625 2.8125 -0.535156 2.8125 -0.890625 C 2.8125 -1.253906 2.925781 -1.546875 3.15625 -1.765625 C 3.394531 -1.992188 3.679688 -2.109375 4.015625 -2.109375 C 4.347656 -2.109375 4.628906 -1.988281 4.859375 -1.75 C 5.097656 -1.519531 5.21875 -1.234375 5.21875 -0.890625 Z M 5.21875 -0.890625 "/></g></g></g><g fill="#ffffff" fill-opacity="1"><g transform="translate(321.575618, 309.166621)"><g/></g></g></svg>