<svg xmlns="http://www.w3.org/2000/svg" xmlns:xlink="http://www.w3.org/1999/xlink" width="500" zoomAndPan="magnify" viewBox="0 0 375 374.999991" height="500" preserveAspectRatio="xMidYMid meet" version="1.0"><defs><g/><clipPath id="8317be3e0f"><path d="M 48.628906 48.628906 L 326.128906 48.628906 L 326.128906 326.128906 L 48.628906 326.128906 Z M 48.628906 48.628906 " clip-rule="nonzero"/></clipPath><clipPath id="87120ada29"><path d="M 286.214844 0 L 375 0 L 375 116.507812 L 286.214844 116.507812 Z M 286.214844 0 " clip-rule="nonzero"/></clipPath><clipPath id="7421bdf385"><path d="M 112.5 123.308594 L 262.5 123.308594 L 262.5 241.808594 L 112.5 241.808594 Z M 112.5 123.308594 " clip-rule="nonzero"/></clipPath></defs><g clip-path="url(#8317be3e0f)"><path fill="#0a5732" d="M 187.449219 326.363281 C 110.945312 326.363281 48.628906 264.050781 48.628906 187.449219 C 48.628906 110.851562 110.945312 48.628906 187.449219 48.628906 C 263.957031 48.628906 326.269531 110.945312 326.269531 187.449219 C 326.363281 264.050781 264.050781 326.363281 187.449219 326.363281 Z M 187.449219 50.980469 C 112.167969 50.980469 50.980469 112.167969 50.980469 187.449219 C 50.980469 262.734375 112.261719 324.015625 187.449219 324.015625 C 262.640625 324.015625 324.015625 262.734375 324.015625 187.449219 C 324.015625 112.167969 262.734375 50.980469 187.449219 50.980469 Z M 187.449219 50.980469 " fill-opacity="1" fill-rule="nonzero"/></g><g fill="#0a5732" fill-opacity="1"><g transform="translate(95.634524, 134.962939)"><g><path d="M -1.890625 -22.703125 L -1.265625 -23.59375 L 7.8125 -10.59375 L 7.59375 -10.296875 L -1.71875 -12.71875 L 3.78125 -4.84375 L 3.578125 -4.546875 L -11.8125 -8.515625 L -10.4375 -10.5 L 1.5625 -6.828125 L -3.0625 -13.046875 L -7.796875 -14.265625 L -6.40625 -16.25 L 5.59375 -12.59375 Z M -1.890625 -22.703125 "/></g></g></g><g fill="#0a5732" fill-opacity="1"><g transform="translate(108.674024, 117.12955)"><g><path d="M -4.046875 -16.65625 C -2.671875 -17.976562 -1.101562 -18.613281 0.65625 -18.5625 C 2.425781 -18.519531 4.082031 -17.695312 5.625 -16.09375 C 6.625 -15.050781 7.316406 -13.96875 7.703125 -12.84375 C 8.085938 -11.726562 8.191406 -10.679688 8.015625 -9.703125 C 7.671875 -7.785156 6.816406 -6.171875 5.453125 -4.859375 C 4.085938 -3.554688 2.519531 -2.929688 0.75 -2.984375 C -1.019531 -3.046875 -2.675781 -3.878906 -4.21875 -5.484375 C -5.019531 -6.316406 -5.625 -7.1875 -6.03125 -8.09375 C -6.445312 -9 -6.660156 -9.847656 -6.671875 -10.640625 C -6.691406 -11.429688 -6.582031 -12.210938 -6.34375 -12.984375 C -5.90625 -14.390625 -5.140625 -15.613281 -4.046875 -16.65625 Z M 1.28125 -4.703125 C 1.988281 -4.492188 2.703125 -4.484375 3.421875 -4.671875 C 4.140625 -4.867188 4.800781 -5.257812 5.40625 -5.84375 C 6.019531 -6.425781 6.421875 -7.097656 6.609375 -7.859375 C 6.796875 -8.617188 6.785156 -9.375 6.578125 -10.125 C 6.148438 -11.644531 5.390625 -12.972656 4.296875 -14.109375 C 2.953125 -15.515625 1.585938 -16.378906 0.203125 -16.703125 C -1.347656 -17.066406 -2.847656 -16.554688 -4.296875 -15.171875 C -4.960938 -13.835938 -5.140625 -12.472656 -4.828125 -11.078125 C -4.523438 -9.691406 -3.84375 -8.441406 -2.78125 -7.328125 C -1.476562 -5.984375 -0.125 -5.109375 1.28125 -4.703125 Z M 1.28125 -4.703125 "/></g></g></g><g fill="#0a5732" fill-opacity="1"><g transform="translate(122.819139, 103.9943)"><g><path d="M -0.9375 -17.125 C 0.644531 -18.164062 2.300781 -18.503906 4.03125 -18.140625 C 5.757812 -17.773438 7.238281 -16.660156 8.46875 -14.796875 C 9.257812 -13.597656 9.738281 -12.410156 9.90625 -11.234375 C 10.082031 -10.054688 10 -9.003906 9.65625 -8.078125 C 8.957031 -6.253906 7.816406 -4.820312 6.234375 -3.78125 C 4.660156 -2.75 3.003906 -2.421875 1.265625 -2.796875 C -0.460938 -3.179688 -1.9375 -4.304688 -3.15625 -6.171875 C -3.789062 -7.128906 -4.222656 -8.085938 -4.453125 -9.046875 C -4.691406 -10.015625 -4.75 -10.890625 -4.625 -11.671875 C -4.5 -12.453125 -4.25 -13.203125 -3.875 -13.921875 C -3.1875 -15.222656 -2.207031 -16.289062 -0.9375 -17.125 Z M 2.125 -4.40625 C 2.789062 -4.070312 3.492188 -3.929688 4.234375 -3.984375 C 4.972656 -4.035156 5.691406 -4.289062 6.390625 -4.75 C 7.097656 -5.21875 7.609375 -5.8125 7.921875 -6.53125 C 8.242188 -7.25 8.375 -7.992188 8.3125 -8.765625 C 8.175781 -10.328125 7.671875 -11.769531 6.796875 -13.09375 C 5.734375 -14.71875 4.546875 -15.816406 3.234375 -16.390625 C 1.785156 -17.035156 0.222656 -16.804688 -1.453125 -15.703125 C -2.359375 -14.515625 -2.785156 -13.207031 -2.734375 -11.78125 C -2.679688 -10.363281 -2.234375 -9.007812 -1.390625 -7.71875 C -0.359375 -6.15625 0.8125 -5.050781 2.125 -4.40625 Z M 2.125 -4.40625 "/></g></g></g><g fill="#0a5732" fill-opacity="1"><g transform="translate(139.337646, 93.733161)"><g><path d="M 0.453125 -9.03125 L 4.71875 -10.9375 L 5.0625 -10.171875 L 0.796875 -8.265625 L 3.75 -1.6875 L 1.8125 -0.8125 L -4.15625 -14.09375 L 3.6875 -17.609375 L 4.296875 -16.28125 L 0.296875 -15.234375 C -0.367188 -14.929688 -1.046875 -14.488281 -1.734375 -13.90625 Z M 0.453125 -9.03125 "/></g></g></g><g fill="#0a5732" fill-opacity="1"><g transform="translate(152.619181, 88.165323)"><g/></g></g><g fill="#0a5732" fill-opacity="1"><g transform="translate(161.292828, 85.233383)"><g><path d="M 5.46875 -0.640625 C 4.445312 -0.460938 3.429688 -0.566406 2.421875 -0.953125 C 1.898438 -1.140625 1.441406 -1.476562 1.046875 -1.96875 C 0.660156 -2.46875 0.410156 -3.082031 0.296875 -3.8125 C 0.128906 -4.75 0.347656 -5.632812 0.953125 -6.46875 C 1.566406 -7.3125 2.597656 -7.988281 4.046875 -8.5 C 3.296875 -9.625 2.832031 -10.703125 2.65625 -11.734375 C 2.550781 -12.359375 2.613281 -13.097656 2.84375 -13.953125 C 3 -14.441406 3.3125 -14.878906 3.78125 -15.265625 C 4.25 -15.660156 4.753906 -15.90625 5.296875 -16 C 5.847656 -16.09375 6.441406 -16.132812 7.078125 -16.125 C 7.722656 -16.113281 8.21875 -16.0625 8.5625 -15.96875 L 8.578125 -14.5625 C 7.546875 -15.09375 6.34375 -15.242188 4.96875 -15.015625 C 4.351562 -14.460938 4.144531 -13.609375 4.34375 -12.453125 C 4.539062 -11.296875 5.117188 -10.03125 6.078125 -8.65625 C 7.035156 -7.289062 8.21875 -6.109375 9.625 -5.109375 C 9.988281 -6.015625 10.296875 -7.363281 10.546875 -9.15625 C 10.179688 -9.09375 9.910156 -9.046875 9.734375 -9.015625 L 9.625 -9.703125 C 11.070312 -9.992188 12.273438 -10.359375 13.234375 -10.796875 L 13.046875 -9.640625 C 12.785156 -9.554688 12.289062 -9.441406 11.5625 -9.296875 C 11.289062 -7.429688 10.875 -5.878906 10.3125 -4.640625 C 12.195312 -3.484375 14.007812 -3.050781 15.75 -3.34375 L 14.921875 -2.515625 C 13.222656 -2.234375 11.460938 -2.535156 9.640625 -3.421875 C 8.609375 -1.859375 7.21875 -0.929688 5.46875 -0.640625 Z M 5.9375 -1.75 C 7.1875 -1.96875 8.203125 -2.648438 8.984375 -3.796875 C 7.210938 -4.804688 5.707031 -6.160156 4.46875 -7.859375 C 3.53125 -7.410156 2.882812 -6.847656 2.53125 -6.171875 C 2.175781 -5.492188 2.0625 -4.8125 2.1875 -4.125 C 2.351562 -3.113281 2.78125 -2.425781 3.46875 -2.0625 C 4.164062 -1.695312 4.988281 -1.59375 5.9375 -1.75 Z M 5.9375 -1.75 "/></g></g></g><g fill="#0a5732" fill-opacity="1"><g transform="translate(181.824699, 82.441107)"><g/></g></g><g fill="#0a5732" fill-opacity="1"><g transform="translate(190.926985, 81.979433)"><g><path d="M 19.171875 -12.28125 L 20.265625 -12.15625 L 13.015625 1.953125 L 12.65625 1.90625 L 10.4375 -7.453125 L 6.046875 1.09375 L 5.6875 1.046875 L 2.015625 -14.421875 L 4.40625 -14.125 L 6.765625 -1.828125 L 10.125 -8.796875 L 8.96875 -13.5625 L 11.359375 -13.265625 L 13.734375 -0.953125 Z M 19.171875 -12.28125 "/></g></g></g><g fill="#0a5732" fill-opacity="1"><g transform="translate(212.828962, 85.254039)"><g><path d="M 0.203125 0.0625 L 10.984375 -12.140625 L 11.296875 -12.046875 L 12.96875 4.15625 L 10.6875 3.421875 L 10.3125 -0.84375 L 4.09375 -2.84375 L 1.34375 0.421875 Z M 4.671875 -3.53125 L 10.25 -1.75 L 9.65625 -9.4375 Z M 4.671875 -3.53125 "/></g></g></g><g fill="#0a5732" fill-opacity="1"><g transform="translate(229.209673, 90.765152)"><g><path d="M 11.46875 6.234375 L 11.125 6.0625 L 8.140625 -9.078125 L 8.078125 -9.125 L 2.625 1.359375 L 1.765625 0.921875 L 8.484375 -12 L 9.921875 -11.25 L 12.46875 2 L 12.5625 2.046875 L 17.4375 -7.34375 L 18.296875 -6.890625 Z M 11.46875 6.234375 "/></g></g></g><g fill="#0a5732" fill-opacity="1"><g transform="translate(245.416045, 99.516976)"><g><path d="M 1.578125 1.21875 L 10.484375 -10.3125 L 13.765625 -7.78125 C 15.128906 -6.71875 16.144531 -5.46875 16.8125 -4.03125 C 17.164062 -3.269531 17.382812 -2.492188 17.46875 -1.703125 C 17.5625 -0.910156 17.46875 -0.0625 17.1875 0.84375 C 16.914062 1.75 16.453125 2.628906 15.796875 3.484375 C 14.835938 4.722656 13.726562 5.523438 12.46875 5.890625 C 10.132812 6.578125 7.707031 5.953125 5.1875 4.015625 Z M 5.28125 3.140625 C 6.757812 4.273438 8.28125 4.753906 9.84375 4.578125 C 11.414062 4.398438 12.851562 3.472656 14.15625 1.796875 C 15.164062 0.484375 15.671875 -0.90625 15.671875 -2.375 C 15.671875 -3.84375 15.222656 -5.15625 14.328125 -6.3125 C 13.316406 -7.09375 12.347656 -7.65625 11.421875 -8 L 3.859375 1.78125 C 4.140625 2.164062 4.613281 2.617188 5.28125 3.140625 Z M 5.28125 3.140625 "/></g></g></g><g fill="#0a5732" fill-opacity="1"><g transform="translate(260.222832, 111.47929)"><g><path d="M 1.34375 1.453125 L 12.015625 -8.453125 L 18.015625 -1.984375 L 16.78125 -1.15625 L 14.5 -4.609375 C 14.007812 -5.128906 13.378906 -5.625 12.609375 -6.09375 L 8.703125 -2.453125 L 12.03125 1.125 L 11.421875 1.6875 L 8.09375 -1.890625 L 3.375 2.46875 L 8.515625 7.015625 L 7.28125 7.859375 Z M 1.34375 1.453125 "/></g></g></g><g fill="#0a5732" fill-opacity="1"><g transform="translate(270.866544, 123.266155)"><g><path d="M 8.078125 -0.421875 L 2.296875 3.4375 L 1.109375 1.65625 L 13.21875 -6.4375 L 15.84375 -2.5 C 16.664062 -1.269531 17.0625 -0.078125 17.03125 1.078125 C 17.007812 2.242188 16.550781 3.125 15.65625 3.71875 C 14.757812 4.320312 13.84375 4.476562 12.90625 4.1875 C 11.976562 3.90625 11.054688 3.296875 10.140625 2.359375 L 7.484375 11.21875 L 5.8125 9.265625 L 9.015625 0.984375 Z M 8.625 -0.796875 L 9.40625 0.375 C 10.875 2.570312 12.472656 3.09375 14.203125 1.9375 C 14.492188 1.738281 14.769531 1.441406 15.03125 1.046875 C 15.625 0.265625 15.738281 -0.664062 15.375 -1.75 C 14.820312 -2.570312 14.171875 -3.320312 13.421875 -4 Z M 8.625 -0.796875 "/></g></g></g><g clip-path="url(#87120ada29)"><path fill="#ffffff" d="M 361.1875 116.507812 C 319.867188 116.507812 286.214844 82.851562 286.214844 41.480469 C 286.214844 0.113281 319.867188 -33.492188 361.1875 -33.492188 C 402.507812 -33.492188 436.164062 0.164062 436.164062 41.480469 C 436.214844 82.851562 402.558594 116.507812 361.1875 116.507812 Z M 361.1875 -32.222656 C 320.527344 -32.222656 287.480469 0.820312 287.480469 41.480469 C 287.480469 82.140625 320.578125 115.238281 361.1875 115.238281 C 401.796875 115.238281 434.945312 82.140625 434.945312 41.480469 C 434.945312 0.820312 401.847656 -32.222656 361.1875 -32.222656 Z M 361.1875 -32.222656 " fill-opacity="1" fill-rule="nonzero"/></g><g clip-path="url(#7421bdf385)"><path fill="#0a5732" d="M 127.476562 186.816406 C 131.644531 186.699219 135.679688 185.890625 139.574219 184.398438 C 141.574219 183.695312 143.613281 183.136719 145.695312 182.726562 C 147.449219 182.363281 149.214844 182.308594 150.992188 182.558594 C 149.566406 185.152344 148.628906 187.910156 148.183594 190.832031 C 146.675781 194.398438 145.425781 198.050781 144.433594 201.792969 C 144.21875 203.246094 142.425781 204.503906 140.515625 205.832031 C 139.886719 206.269531 139.257812 206.703125 138.628906 207.1875 C 135.96875 209.21875 133.789062 211.710938 135.046875 216.066406 C 136.09375 220.988281 136.84375 225.957031 137.296875 230.96875 C 137.371094 231.625 137.523438 232.261719 137.757812 232.878906 C 137.988281 233.492188 138.296875 234.070312 138.679688 234.609375 C 139.058594 235.144531 139.5 235.628906 140.003906 236.050781 C 140.507812 236.476562 141.058594 236.832031 141.652344 237.117188 C 148.160156 240.261719 149.757812 240.503906 150.363281 240.503906 L 150.53125 240.503906 C 151.089844 240.492188 151.609375 240.351562 152.097656 240.074219 C 152.582031 239.800781 152.972656 239.425781 153.265625 238.953125 C 153.609375 238.226562 153.765625 237.457031 153.726562 236.652344 C 153.6875 235.847656 153.460938 235.097656 153.046875 234.40625 C 152.890625 234.015625 152.683594 233.652344 152.425781 233.320312 C 152.164062 232.988281 151.867188 232.699219 151.527344 232.453125 C 151.1875 232.203125 150.820312 232.007812 150.425781 231.863281 C 150.027344 231.71875 149.621094 231.628906 149.203125 231.597656 C 148.488281 231.539062 147.84375 231.296875 147.265625 230.875 C 145.695312 229.566406 146.007812 224.316406 146.152344 221.777344 C 146.273438 219.695312 149.25 214.976562 151.210938 212.390625 L 152.902344 211.324219 L 162.582031 218.582031 C 162.945312 219.867188 164.128906 224.003906 165 226.421875 C 166.988281 230.667969 169.410156 234.652344 172.257812 238.375 C 173.296875 239.582031 177.386719 240.453125 180.265625 240.453125 C 180.957031 240.476562 181.632812 240.394531 182.296875 240.210938 C 182.6875 240.148438 183.019531 239.976562 183.296875 239.695312 C 183.574219 239.414062 183.742188 239.078125 183.796875 238.6875 C 183.796875 238.496094 183.796875 238.300781 183.796875 238.109375 C 183.898438 237.828125 183.96875 237.539062 184.011719 237.242188 C 184.050781 236.949219 184.058594 236.652344 184.039062 236.355469 C 184.019531 236.058594 183.96875 235.765625 183.886719 235.480469 C 183.804688 235.191406 183.695312 234.917969 183.554688 234.652344 C 183.417969 234.390625 183.253906 234.140625 183.0625 233.914062 C 182.871094 233.683594 182.660156 233.476562 182.425781 233.289062 C 182.195312 233.105469 181.945312 232.945312 181.679688 232.808594 C 181.410156 232.675781 181.136719 232.570312 180.847656 232.496094 C 178.644531 231.71875 175.355469 227.65625 173.976562 225.71875 C 174.402344 220.917969 174.070312 216.167969 172.984375 211.46875 C 172.078125 208.5 171.820312 205.476562 172.210938 202.398438 C 175.597656 204.671875 185.394531 209.65625 205.355469 208.347656 L 206.855469 208.640625 C 208.894531 209.023438 210.796875 209.757812 212.566406 210.839844 C 212.417969 216.914062 212.324219 220.519531 212.226562 221.632812 C 212.152344 223.148438 212.234375 224.65625 212.46875 226.15625 C 212.6875 227.761719 212.792969 229.375 212.78125 230.996094 L 212.78125 232.109375 C 212.636719 235.785156 212.515625 239.367188 214.5 240.625 C 215.792969 241.285156 217.164062 241.566406 218.613281 241.46875 C 220.105469 241.464844 221.578125 241.3125 223.039062 241.011719 C 223.511719 240.917969 223.9375 240.726562 224.316406 240.433594 C 224.695312 240.136719 224.988281 239.773438 225.195312 239.339844 C 225.421875 238.738281 225.507812 238.113281 225.457031 237.46875 C 225.40625 236.828125 225.222656 236.226562 224.902344 235.664062 C 224.5 234.875 223.921875 234.242188 223.171875 233.769531 C 222.421875 233.296875 221.605469 233.050781 220.71875 233.027344 L 219.847656 232.882812 C 219.519531 230.640625 219.746094 228.453125 220.523438 226.324219 C 221.171875 223.125 221.640625 219.898438 221.925781 216.648438 L 221.925781 216.308594 L 230.589844 215.800781 L 234.21875 219.648438 L 233.46875 229.082031 L 233.46875 229.253906 L 233.660156 232.542969 C 233.621094 233.40625 233.90625 234.148438 234.507812 234.769531 C 235.382812 235.382812 236.339844 235.824219 237.378906 236.085938 C 238.417969 236.347656 239.46875 236.417969 240.53125 236.292969 L 243.871094 236.292969 C 244.394531 236.289062 244.902344 236.1875 245.386719 235.984375 C 245.871094 235.78125 246.296875 235.496094 246.667969 235.125 C 247.039062 234.753906 247.328125 234.324219 247.53125 233.839844 C 247.734375 233.355469 247.835938 232.851562 247.839844 232.324219 C 247.960938 231.460938 247.800781 230.65625 247.355469 229.90625 C 246.664062 229.125 245.800781 228.664062 244.765625 228.527344 L 244.621094 228.527344 C 244.402344 228.527344 242.539062 228.1875 242.613281 226.785156 L 243.484375 217.109375 C 243.550781 216.324219 243.457031 215.5625 243.199219 214.820312 C 242.945312 214.078125 242.546875 213.421875 242.007812 212.847656 L 236.445312 206.898438 C 235.773438 206.175781 234.96875 205.675781 234.023438 205.398438 L 230.660156 204.210938 C 232.546875 202.597656 234.054688 200.683594 235.179688 198.46875 C 236.308594 196.257812 236.972656 193.914062 237.167969 191.4375 C 237.386719 186.988281 238.789062 177.574219 238.789062 177.476562 L 239.324219 172.640625 C 239.339844 172.40625 239.289062 172.191406 239.175781 171.988281 C 239.90625 170.742188 240.832031 169.667969 241.960938 168.769531 C 242.234375 168.566406 242.53125 168.519531 242.855469 168.625 C 243.796875 169.023438 244.78125 169.21875 245.804688 169.21875 C 246.832031 169.21875 247.8125 169.023438 248.757812 168.625 C 251.355469 167.433594 254.015625 166.410156 256.742188 165.550781 C 257.402344 165.324219 257.976562 164.96875 258.472656 164.472656 C 258.964844 163.980469 259.324219 163.40625 259.546875 162.746094 L 260.46875 160.082031 L 260.683594 159.890625 C 261.265625 159.332031 261.710938 158.683594 262.027344 157.945312 C 262.34375 157.207031 262.5 156.433594 262.5 155.632812 C 262.289062 154.898438 261.902344 154.277344 261.332031 153.765625 C 260.765625 153.253906 260.105469 152.933594 259.355469 152.800781 L 258.824219 152.488281 C 257.171875 151.726562 255.453125 151.167969 253.667969 150.816406 C 251.644531 150.480469 249.75 149.785156 247.984375 148.738281 C 247.476562 148.375 246.675781 147.648438 246.894531 147.042969 C 247.058594 146.535156 247.058594 146.03125 246.886719 145.523438 C 246.71875 145.019531 246.414062 144.613281 245.976562 144.308594 C 242.835938 141.980469 239.34375 140.464844 235.5 139.761719 C 234.722656 139.628906 233.949219 139.648438 233.179688 139.816406 C 232.410156 139.984375 231.699219 140.289062 231.046875 140.726562 C 229.53125 140.945312 228.015625 140.945312 226.5 140.726562 C 225.582031 140.59375 224.660156 140.59375 223.742188 140.726562 C 221.105469 141.140625 216.484375 146.4375 215.324219 148.664062 C 214.996094 149.699219 214.90625 150.753906 215.054688 151.832031 C 215.203125 152.90625 215.574219 153.898438 216.167969 154.808594 C 215.4375 157.351562 214.953125 159.941406 214.71875 162.574219 L 214.71875 163.832031 C 188.175781 151.882812 171.386719 138.890625 163.304688 124.058594 C 163.230469 123.921875 163.132812 123.808594 163.007812 123.710938 C 162.886719 123.617188 162.75 123.546875 162.601562 123.503906 C 162.453125 123.460938 162.300781 123.445312 162.144531 123.464844 C 161.992188 123.480469 161.847656 123.527344 161.710938 123.597656 C 161.570312 123.671875 161.453125 123.769531 161.355469 123.894531 C 161.257812 124.015625 161.1875 124.152344 161.144531 124.300781 C 161.101562 124.453125 161.089844 124.605469 161.105469 124.757812 C 161.125 124.914062 161.171875 125.058594 161.25 125.195312 C 169.597656 140.511719 186.796875 153.890625 213.75 166.109375 L 213.023438 168.210938 C 212.0625 169.042969 211 169.703125 209.832031 170.195312 C 208.597656 170.753906 207.308594 171.078125 205.960938 171.164062 C 204.230469 171.378906 202.617188 171.9375 201.121094 172.832031 C 199.210938 173.847656 193.453125 172.832031 187.863281 171.960938 C 182.425781 170.773438 176.925781 170.230469 171.363281 170.339844 C 168.019531 170.671875 164.792969 171.476562 161.683594 172.761719 C 159.53125 173.582031 158.589844 173.898438 157.136719 173.316406 C 153.046875 171.695312 145.644531 173.875 140.757812 175.277344 L 140.445312 175.277344 C 137.910156 175.996094 135.324219 176.355469 132.691406 176.355469 C 130.054688 176.355469 127.46875 175.996094 124.933594 175.277344 C 120.363281 173.414062 113.515625 176.292969 113.226562 176.4375 C 112.84375 176.585938 112.609375 176.859375 112.523438 177.261719 C 112.4375 177.664062 112.535156 178.019531 112.816406 178.324219 C 113.128906 178.808594 120.433594 186.597656 127.476562 186.816406 Z M 149.757812 210.527344 C 149.636719 210.605469 149.53125 210.699219 149.445312 210.816406 C 148.886719 211.542969 144 218.074219 143.78125 221.679688 C 143.539062 226.203125 143.46875 230.800781 145.765625 232.710938 C 146.644531 233.417969 147.644531 233.832031 148.765625 233.945312 C 149.832031 234.164062 150.363281 234.261719 150.894531 235.398438 C 151.367188 236.152344 151.480469 236.960938 151.234375 237.816406 C 151.023438 238.078125 150.75 238.207031 150.410156 238.203125 C 147.683594 237.503906 145.105469 236.449219 142.667969 235.035156 C 141.835938 234.640625 141.152344 234.066406 140.617188 233.320312 C 140.078125 232.570312 139.753906 231.738281 139.644531 230.824219 C 139.136719 225.664062 138.332031 220.550781 137.226562 215.488281 C 136.453125 213.066406 137.226562 211.347656 139.984375 209.171875 L 141.796875 207.890625 C 144.21875 206.269531 146.324219 204.71875 146.636719 202.253906 C 147.179688 200.0625 147.890625 197.921875 148.765625 195.839844 L 149.25 198.261719 C 149.863281 201.972656 150.667969 205.640625 151.667969 209.269531 Z M 220.378906 235.226562 C 221.566406 235.398438 222.316406 235.566406 222.796875 236.535156 C 223.09375 237.082031 223.152344 237.65625 222.96875 238.253906 C 222.839844 238.496094 222.636719 238.636719 222.363281 238.664062 C 220.144531 239.230469 217.925781 239.230469 215.710938 238.664062 C 214.816406 238.035156 214.933594 234.671875 215.007812 232.203125 L 215.007812 231.066406 C 215.015625 229.324219 214.902344 227.589844 214.667969 225.867188 C 214.453125 224.527344 214.371094 223.179688 214.425781 221.824219 C 214.425781 220.785156 214.621094 217.953125 214.71875 213.210938 L 215.832031 214.347656 C 216.851562 215.429688 218.09375 216.089844 219.554688 216.332031 C 219.097656 220.300781 218.589844 224.390625 218.25 225.503906 C 218.25 225.503906 216.363281 231.914062 217.863281 234.089844 C 218.175781 234.457031 218.554688 234.738281 218.996094 234.9375 C 219.433594 235.136719 219.894531 235.234375 220.378906 235.226562 Z M 216.265625 165.988281 C 222.785156 169.445312 229.65625 171.9375 236.878906 173.460938 L 236.589844 175.882812 C 222.605469 172.929688 217.015625 169.617188 215.417969 168.476562 Z M 259.160156 158.246094 C 258.21875 157.6875 257.636719 157.035156 257.660156 156.527344 C 257.683594 156.019531 258.460938 155.367188 258.871094 155.195312 C 259.28125 155.027344 260.03125 155.632812 260.128906 156.164062 C 260.050781 156.972656 259.730469 157.664062 259.160156 158.246094 Z M 235.257812 142.203125 C 238.699219 142.878906 241.828125 144.257812 244.644531 146.339844 C 244.332031 147.210938 244.183594 148.929688 246.554688 150.695312 C 248.570312 151.925781 250.738281 152.730469 253.066406 153.117188 C 254.167969 153.359375 255.257812 153.65625 256.332031 154.011719 C 255.644531 154.671875 255.296875 155.476562 255.289062 156.429688 C 255.378906 157.253906 255.664062 158.007812 256.140625 158.6875 C 256.617188 159.367188 257.230469 159.886719 257.976562 160.253906 L 257.347656 162.117188 C 257.121094 162.792969 256.667969 163.242188 255.992188 163.46875 C 253.152344 164.378906 250.378906 165.449219 247.667969 166.6875 C 246.320312 167.105469 244.996094 167.03125 243.703125 166.46875 C 243.160156 166.265625 242.605469 166.207031 242.035156 166.296875 C 241.464844 166.386719 240.957031 166.617188 240.507812 166.976562 C 239.066406 168.121094 237.902344 169.5 237.023438 171.117188 C 229.964844 169.59375 223.265625 167.109375 216.917969 163.664062 C 216.917969 163.347656 216.917969 163.011719 216.917969 162.671875 C 217.089844 160.757812 217.421875 158.871094 217.910156 157.011719 C 218.425781 157.386719 218.78125 157.878906 218.976562 158.488281 C 219.332031 159.328125 219.804688 160.09375 220.402344 160.785156 C 222.855469 162.710938 225.628906 163.875 228.726562 164.269531 C 229.664062 164.476562 230.550781 164.8125 231.386719 165.285156 C 232.417969 165.894531 233.53125 166.25 234.726562 166.347656 C 234.910156 166.375 235.097656 166.375 235.28125 166.347656 C 235.6875 166.28125 236.046875 166.121094 236.371094 165.867188 C 236.691406 165.613281 236.933594 165.296875 237.097656 164.921875 C 237.628906 163.5 237.867188 162.03125 237.8125 160.511719 C 237.757812 158.992188 237.414062 157.542969 236.78125 156.164062 C 235.394531 152.792969 234.707031 149.285156 234.726562 145.640625 C 234.777344 144.996094 234.695312 144.371094 234.488281 143.757812 C 234.277344 143.148438 233.953125 142.605469 233.515625 142.132812 C 234.097656 142.054688 234.675781 142.054688 235.257812 142.132812 Z M 217.355469 149.703125 C 218.992188 146.917969 221.207031 144.714844 224.007812 143.097656 L 224.710938 143.097656 C 225.179688 143.109375 225.648438 143.148438 226.113281 143.21875 C 227.804688 143.4375 229.5 143.4375 231.195312 143.21875 C 231.652344 143.441406 232.003906 143.773438 232.25 144.214844 C 232.5 144.660156 232.597656 145.132812 232.546875 145.640625 C 232.496094 149.675781 233.253906 153.554688 234.824219 157.277344 C 235.328125 158.359375 235.601562 159.492188 235.648438 160.683594 C 235.695312 161.878906 235.507812 163.03125 235.089844 164.148438 C 234.210938 164.078125 233.40625 163.804688 232.667969 163.324219 C 231.636719 162.773438 230.546875 162.371094 229.402344 162.117188 C 226.84375 161.785156 224.515625 160.875 222.410156 159.382812 C 221.976562 158.808594 221.632812 158.1875 221.371094 157.519531 C 220.96875 156.5 220.308594 155.695312 219.386719 155.097656 C 218.59375 154.429688 218.015625 153.605469 217.65625 152.632812 C 217.292969 151.65625 217.191406 150.65625 217.355469 149.632812 Z M 124.039062 177.597656 C 126.824219 178.402344 129.667969 178.808594 132.570312 178.808594 C 135.46875 178.808594 138.3125 178.402344 141.097656 177.597656 L 141.53125 177.597656 C 145.839844 176.339844 153.046875 174.238281 156.386719 175.566406 C 157.421875 175.925781 158.488281 176.058594 159.578125 175.960938 C 160.671875 175.863281 161.695312 175.546875 162.652344 175.011719 C 165.523438 173.839844 168.5 173.089844 171.582031 172.761719 C 176.976562 172.632812 182.316406 173.132812 187.597656 174.261719 C 194.105469 175.347656 199.695312 176.269531 202.355469 174.914062 C 203.507812 174.183594 204.757812 173.707031 206.105469 173.488281 C 207.726562 173.382812 209.285156 173.003906 210.773438 172.347656 C 211.976562 171.828125 213.089844 171.160156 214.113281 170.339844 C 216.144531 171.746094 222.144531 175.179688 236.371094 178.15625 C 235.984375 180.792969 235.039062 187.519531 234.871094 191.21875 C 234.785156 192.363281 234.582031 193.484375 234.261719 194.582031 C 233.945312 195.683594 233.515625 196.738281 232.980469 197.75 C 232.441406 198.761719 231.804688 199.710938 231.074219 200.589844 C 230.339844 201.46875 229.527344 202.265625 228.628906 202.976562 L 228.507812 202.976562 C 227.960938 202.480469 227.589844 201.875 227.394531 201.164062 L 226.984375 199.738281 C 226.941406 199.585938 226.871094 199.449219 226.777344 199.328125 C 226.679688 199.203125 226.5625 199.105469 226.425781 199.027344 C 226.292969 198.949219 226.144531 198.902344 225.992188 198.882812 C 225.835938 198.863281 225.683594 198.871094 225.53125 198.914062 C 225.382812 198.957031 225.242188 199.03125 225.121094 199.128906 C 224.996094 199.226562 224.898438 199.347656 224.820312 199.484375 C 224.742188 199.621094 224.695312 199.769531 224.675781 199.925781 C 224.65625 200.082031 224.667969 200.238281 224.710938 200.390625 L 225.121094 201.816406 C 225.554688 203.363281 226.449219 204.5625 227.804688 205.421875 C 228.148438 205.636719 228.511719 205.816406 228.894531 205.953125 L 233.25 207.550781 C 233.8125 207.722656 234.296875 208.019531 234.703125 208.445312 L 240.265625 214.375 C 240.890625 215.058594 241.175781 215.867188 241.113281 216.792969 L 240.242188 226.46875 C 240.226562 227.019531 240.316406 227.550781 240.507812 228.066406 C 240.699219 228.578125 240.980469 229.039062 241.351562 229.445312 C 241.722656 229.851562 242.152344 230.171875 242.648438 230.410156 C 243.140625 230.648438 243.660156 230.789062 244.210938 230.824219 C 244.636719 230.90625 245.039062 231.050781 245.417969 231.261719 C 245.453125 231.582031 245.453125 231.90625 245.417969 232.226562 C 245.417969 232.4375 245.375 232.640625 245.292969 232.835938 C 245.210938 233.03125 245.09375 233.203125 244.945312 233.351562 C 244.796875 233.5 244.625 233.617188 244.429688 233.699219 C 244.234375 233.78125 244.035156 233.820312 243.824219 233.824219 L 240.554688 233.824219 C 238.136719 233.824219 236.757812 233.558594 236.226562 233.003906 C 236.0625 232.839844 236.007812 232.644531 236.054688 232.421875 L 235.886719 229.203125 L 236.660156 219.332031 C 236.683594 218.984375 236.578125 218.675781 236.347656 218.414062 L 231.945312 213.890625 C 231.695312 213.617188 231.390625 213.496094 231.023438 213.527344 L 221.054688 214.132812 C 221.054688 214.132812 221.054688 214.132812 220.933594 214.132812 C 220.3125 214.148438 219.710938 214.039062 219.136719 213.804688 C 218.558594 213.570312 218.054688 213.226562 217.621094 212.777344 L 214.574219 209.609375 C 214.527344 209.53125 214.472656 209.46875 214.402344 209.414062 L 214.113281 209.050781 C 212.003906 207.597656 209.6875 206.648438 207.167969 206.195312 L 205.476562 205.859375 L 205.183594 205.859375 C 184.621094 207.210938 175.257812 201.792969 172.984375 200.050781 L 173.925781 197.632812 C 173.988281 197.484375 174.015625 197.332031 174.015625 197.175781 C 174.015625 197.019531 173.984375 196.867188 173.921875 196.722656 C 173.859375 196.574219 173.773438 196.449219 173.664062 196.335938 C 173.550781 196.226562 173.421875 196.140625 173.273438 196.082031 C 173.128906 196.023438 172.976562 195.992188 172.820312 195.996094 C 172.660156 195.996094 172.511719 196.027344 172.363281 196.089844 C 172.21875 196.148438 172.089844 196.234375 171.980469 196.347656 C 171.871094 196.460938 171.785156 196.589844 171.726562 196.738281 L 170.445312 199.832031 C 168.871094 203.558594 169.695312 207.359375 170.636719 211.785156 C 171.832031 216.453125 172.230469 221.1875 171.824219 225.988281 C 171.796875 226.273438 171.867188 226.53125 172.039062 226.761719 C 172.5 227.460938 176.878906 233.558594 180.289062 234.792969 C 182.128906 235.421875 181.984375 236.292969 181.71875 237.746094 C 181.71875 237.746094 181.71875 237.9375 181.71875 238.035156 C 179.125 238.296875 176.632812 237.910156 174.242188 236.875 C 171.558594 233.394531 169.261719 229.675781 167.347656 225.71875 C 166.402344 222.9375 164.925781 217.664062 164.925781 217.589844 C 164.855469 217.34375 164.71875 217.144531 164.515625 216.988281 L 154.695312 209.726562 C 154.695312 209.726562 154.695312 209.511719 154.574219 209.414062 C 153.417969 205.625 152.511719 201.78125 151.863281 197.875 C 151.453125 195.746094 151.089844 193.929688 150.796875 192.695312 C 150.699219 192.273438 150.660156 191.847656 150.675781 191.414062 C 151.117188 188.304688 152.101562 185.375 153.628906 182.632812 C 153.789062 182.378906 153.839844 182.105469 153.785156 181.8125 C 153.726562 181.519531 153.578125 181.285156 153.339844 181.109375 C 153 180.839844 150.917969 179.511719 145.210938 180.503906 C 143.023438 180.929688 140.878906 181.511719 138.773438 182.246094 C 135.125 183.621094 131.351562 184.355469 127.453125 184.445312 C 122.976562 184.445312 118.039062 180.261719 115.742188 178.15625 C 117.0625 177.640625 118.433594 177.335938 119.847656 177.238281 C 121.265625 177.144531 122.660156 177.265625 124.039062 177.597656 Z M 124.039062 177.597656 " fill-opacity="1" fill-rule="nonzero"/></g><path fill="#0a5732" d="M 239.226562 152.316406 C 239.648438 152.324219 239.976562 152.15625 240.21875 151.808594 C 240.917969 150.792969 241.597656 150.9375 241.742188 150.960938 C 241.882812 151.019531 242.03125 151.042969 242.1875 151.042969 C 242.339844 151.039062 242.484375 151.003906 242.625 150.945312 C 242.765625 150.882812 242.890625 150.796875 242.996094 150.6875 C 243.105469 150.578125 243.183594 150.453125 243.242188 150.308594 C 243.300781 150.164062 243.332031 150.011719 243.332031 149.855469 C 243.328125 149.695312 243.296875 149.542969 243.238281 149.398438 C 243.175781 149.253906 243.089844 149.125 242.976562 149.015625 C 242.863281 148.90625 242.734375 148.820312 242.589844 148.761719 C 242.183594 148.636719 241.769531 148.582031 241.347656 148.601562 C 240.921875 148.617188 240.515625 148.703125 240.121094 148.859375 C 239.726562 149.015625 239.371094 149.230469 239.050781 149.511719 C 238.730469 149.789062 238.46875 150.109375 238.257812 150.476562 C 238.171875 150.605469 238.109375 150.746094 238.078125 150.898438 C 238.046875 151.050781 238.046875 151.203125 238.078125 151.355469 C 238.105469 151.507812 238.164062 151.648438 238.25 151.777344 C 238.335938 151.90625 238.445312 152.011719 238.574219 152.097656 C 238.765625 152.242188 238.984375 152.316406 239.226562 152.316406 Z M 239.226562 152.316406 " fill-opacity="1" fill-rule="nonzero"/><g fill="#0a5732" fill-opacity="1"><g transform="translate(94.893128, 261.64819)"><g><path d="M 11.328125 -5.40625 C 10.847656 -4.976562 10.570312 -4.394531 10.5 -3.65625 C 10.4375 -2.914062 10.488281 -2.128906 10.65625 -1.296875 C 10.832031 -0.472656 11 0.347656 11.15625 1.171875 C 11.320312 1.992188 11.335938 2.800781 11.203125 3.59375 C 11.078125 4.394531 10.734375 5.050781 10.171875 5.5625 C 9.285156 6.363281 8.253906 6.6875 7.078125 6.53125 C 5.910156 6.382812 4.820312 5.75 3.8125 4.625 C 2.800781 3.507812 2.015625 2.210938 1.453125 0.734375 L 2.21875 0.03125 C 2.664062 1.65625 3.238281 2.851562 3.9375 3.625 C 4.644531 4.40625 5.382812 4.835938 6.15625 4.921875 C 6.925781 5.015625 7.648438 4.757812 8.328125 4.15625 C 8.785156 3.75 9.039062 3.191406 9.09375 2.484375 C 9.15625 1.785156 9.085938 1.050781 8.890625 0.28125 C 8.703125 -0.476562 8.523438 -1.242188 8.359375 -2.015625 C 8.203125 -2.785156 8.1875 -3.554688 8.3125 -4.328125 C 8.445312 -5.097656 8.832031 -5.769531 9.46875 -6.34375 C 10.113281 -6.925781 10.972656 -7.179688 12.046875 -7.109375 C 13.117188 -7.035156 14.160156 -6.429688 15.171875 -5.296875 C 15.847656 -4.554688 16.523438 -3.46875 17.203125 -2.03125 L 15.96875 -1.1875 C 15.257812 -3.226562 14.429688 -4.769531 13.484375 -5.8125 C 12.710938 -6.144531 11.992188 -6.007812 11.328125 -5.40625 Z M 11.328125 -5.40625 "/></g></g></g><g fill="#0a5732" fill-opacity="1"><g transform="translate(107.214922, 274.834234)"><g><path d="M 15.96875 -6.25 C 17.457031 -5.070312 18.296875 -3.601562 18.484375 -1.84375 C 18.679688 -0.09375 18.085938 1.65625 16.703125 3.40625 C 15.804688 4.53125 14.828125 5.359375 13.765625 5.890625 C 12.710938 6.421875 11.691406 6.664062 10.703125 6.625 C 8.742188 6.539062 7.023438 5.910156 5.546875 4.734375 C 4.066406 3.566406 3.238281 2.097656 3.0625 0.328125 C 2.882812 -1.429688 3.488281 -3.179688 4.875 -4.921875 C 5.59375 -5.828125 6.367188 -6.546875 7.203125 -7.078125 C 8.035156 -7.609375 8.84375 -7.929688 9.625 -8.046875 C 10.414062 -8.171875 11.210938 -8.171875 12.015625 -8.046875 C 13.460938 -7.796875 14.78125 -7.195312 15.96875 -6.25 Z M 4.84375 0.640625 C 4.738281 1.367188 4.828125 2.078125 5.109375 2.765625 C 5.390625 3.453125 5.859375 4.054688 6.515625 4.578125 C 7.179688 5.109375 7.90625 5.410156 8.6875 5.484375 C 9.46875 5.566406 10.210938 5.453125 10.921875 5.140625 C 12.367188 4.515625 13.582031 3.582031 14.5625 2.34375 C 15.769531 0.820312 16.441406 -0.644531 16.578125 -2.0625 C 16.734375 -3.644531 16.023438 -5.054688 14.453125 -6.296875 C 13.035156 -6.785156 11.660156 -6.785156 10.328125 -6.296875 C 8.992188 -5.804688 7.847656 -4.957031 6.890625 -3.75 C 5.722656 -2.28125 5.039062 -0.816406 4.84375 0.640625 Z M 4.84375 0.640625 "/></g></g></g><g fill="#0a5732" fill-opacity="1"><g transform="translate(124.659225, 287.913359)"><g><path d="M 7.515625 4.375 C 5.515625 3.289062 4.125 1.835938 3.34375 0.015625 C 2.5625 -1.804688 2.71875 -3.734375 3.8125 -5.765625 C 4.457031 -6.941406 5.253906 -7.875 6.203125 -8.5625 C 7.160156 -9.25 8.15625 -9.660156 9.1875 -9.796875 C 11.25 -10.066406 13.207031 -9.703125 15.0625 -8.703125 C 16.125 -8.117188 17.128906 -7.320312 18.078125 -6.3125 L 17.1875 -5.09375 C 16.71875 -5.6875 16.347656 -6.140625 16.078125 -6.453125 C 15.304688 -7.316406 14.429688 -8.015625 13.453125 -8.546875 C 11.929688 -8.960938 10.523438 -8.851562 9.234375 -8.21875 C 7.941406 -7.59375 6.878906 -6.503906 6.046875 -4.953125 C 5.015625 -3.054688 4.71875 -1.328125 5.15625 0.234375 C 5.59375 1.804688 6.617188 3.03125 8.234375 3.90625 C 9.859375 4.78125 11.257812 5.085938 12.4375 4.828125 L 11.875 5.890625 C 10.53125 5.734375 9.078125 5.226562 7.515625 4.375 Z M 7.515625 4.375 "/></g></g></g><g fill="#0a5732" fill-opacity="1"><g transform="translate(142.0223, 296.629646)"><g><path d="M 8.96875 -12.15625 L 3.734375 1.4375 L 1.859375 0.71875 L 7.09375 -12.875 Z M 8.96875 -12.15625 "/></g></g></g><g fill="#0a5732" fill-opacity="1"><g transform="translate(152.821745, 300.671407)"><g><path d="M 0.21875 0.046875 L 10.078125 -12.90625 L 10.390625 -12.828125 L 13.234375 3.203125 L 10.90625 2.640625 L 10.234375 -1.59375 L 3.890625 -3.125 L 1.359375 0.328125 Z M 4.390625 -3.859375 L 10.078125 -2.484375 L 8.953125 -10.109375 Z M 4.390625 -3.859375 "/></g></g></g><g fill="#0a5732" fill-opacity="1"><g transform="translate(171.910793, 304.737369)"><g><path d="M 1.984375 0.171875 L 3.25 -14.328125 L 5.390625 -14.140625 L 4.234375 -0.828125 C 5.097656 -0.484375 5.796875 -0.289062 6.328125 -0.25 L 10.359375 -0.578125 L 9.984375 0.875 Z M 1.984375 0.171875 "/></g></g></g><g fill="#0a5732" fill-opacity="1"><g transform="translate(188.009217, 305.691633)"><g/></g></g><g fill="#0a5732" fill-opacity="1"><g transform="translate(199.075259, 305.348965)"><g><path d="M 10.078125 -7.953125 L 12.171875 -8.28125 L 13.078125 -2.578125 C 11.921875 -1.878906 10.46875 -1.394531 8.71875 -1.125 C 6.59375 -0.78125 4.664062 -1.050781 2.9375 -1.9375 C 2.09375 -2.382812 1.367188 -3.03125 0.765625 -3.875 C 0.171875 -4.726562 -0.210938 -5.707031 -0.390625 -6.8125 C -0.566406 -7.925781 -0.546875 -8.957031 -0.328125 -9.90625 C -0.117188 -10.863281 0.210938 -11.679688 0.671875 -12.359375 C 1.128906 -13.046875 1.691406 -13.65625 2.359375 -14.1875 C 3.628906 -15.1875 5.085938 -15.816406 6.734375 -16.078125 C 7.367188 -16.179688 8.066406 -16.21875 8.828125 -16.1875 C 9.585938 -16.164062 10.175781 -16.109375 10.59375 -16.015625 L 10.609375 -14.53125 C 8.523438 -15.039062 6.835938 -15.191406 5.546875 -14.984375 C 4.140625 -14.378906 3.101562 -13.421875 2.4375 -12.109375 C 1.78125 -10.804688 1.585938 -9.304688 1.859375 -7.609375 C 2.203125 -5.492188 3.019531 -3.945312 4.3125 -2.96875 C 5.613281 -2 7.179688 -1.660156 9.015625 -1.953125 C 9.734375 -2.066406 10.378906 -2.238281 10.953125 -2.46875 Z M 10.078125 -7.953125 "/></g></g></g><g fill="#0a5732" fill-opacity="1"><g transform="translate(219.513077, 301.546068)"><g><path d="M 1.671875 -7.90625 L 3.921875 -1.328125 L 1.875 -0.640625 L -2.828125 -14.421875 L 1.671875 -15.953125 C 3.066406 -16.429688 4.320312 -16.507812 5.4375 -16.1875 C 6.550781 -15.875 7.28125 -15.207031 7.625 -14.1875 C 7.976562 -13.164062 7.894531 -12.238281 7.375 -11.40625 C 6.863281 -10.570312 6.035156 -9.835938 4.890625 -9.203125 L 12.765625 -4.34375 L 10.453125 -3.234375 L 3.265625 -8.453125 Z M 1.46875 -8.53125 L 2.796875 -8.984375 C 5.296875 -9.835938 6.207031 -11.25 5.53125 -13.21875 C 5.414062 -13.550781 5.203125 -13.898438 4.890625 -14.265625 C 4.273438 -15.023438 3.398438 -15.367188 2.265625 -15.296875 C 1.328125 -14.972656 0.441406 -14.535156 -0.390625 -13.984375 Z M 1.46875 -8.53125 "/></g></g></g><g fill="#0a5732" fill-opacity="1"><g transform="translate(238.211846, 294.720065)"><g><path d="M 0.40625 -17.140625 C 2.070312 -18.054688 3.75 -18.265625 5.4375 -17.765625 C 7.132812 -17.265625 8.519531 -16.039062 9.59375 -14.09375 C 10.28125 -12.832031 10.664062 -11.609375 10.75 -10.421875 C 10.832031 -9.242188 10.664062 -8.203125 10.25 -7.296875 C 9.425781 -5.535156 8.1875 -4.195312 6.53125 -3.28125 C 4.875 -2.375 3.195312 -2.175781 1.5 -2.6875 C -0.195312 -3.207031 -1.585938 -4.441406 -2.671875 -6.390625 C -3.222656 -7.410156 -3.578125 -8.40625 -3.734375 -9.375 C -3.898438 -10.351562 -3.890625 -11.226562 -3.703125 -12 C -3.515625 -12.769531 -3.207031 -13.5 -2.78125 -14.1875 C -1.976562 -15.425781 -0.914062 -16.410156 0.40625 -17.140625 Z M 2.453125 -4.21875 C 3.085938 -3.84375 3.773438 -3.648438 4.515625 -3.640625 C 5.265625 -3.628906 6.007812 -3.828125 6.75 -4.234375 C 7.488281 -4.640625 8.039062 -5.1875 8.40625 -5.875 C 8.78125 -6.570312 8.96875 -7.3125 8.96875 -8.09375 C 8.957031 -9.664062 8.566406 -11.144531 7.796875 -12.53125 C 6.859375 -14.238281 5.757812 -15.421875 4.5 -16.078125 C 3.09375 -16.835938 1.515625 -16.738281 -0.234375 -15.78125 C -1.222656 -14.65625 -1.742188 -13.378906 -1.796875 -11.953125 C -1.859375 -10.535156 -1.519531 -9.15625 -0.78125 -7.8125 C 0.125 -6.164062 1.203125 -4.96875 2.453125 -4.21875 Z M 2.453125 -4.21875 "/></g></g></g><g fill="#0a5732" fill-opacity="1"><g transform="translate(257.043518, 283.692861)"><g><path d="M 0.796875 -19.375 L 6.421875 -12.421875 C 7.265625 -11.367188 7.796875 -10.476562 8.015625 -9.75 C 8.109375 -9.4375 8.164062 -9.035156 8.1875 -8.546875 C 8.207031 -8.066406 8.140625 -7.617188 7.984375 -7.203125 C 7.585938 -6.148438 6.828125 -5.171875 5.703125 -4.265625 C 2.867188 -1.984375 0.273438 -2.296875 -2.078125 -5.203125 L -7.875 -12.375 L -6.125 -13.765625 L -0.21875 -6.453125 C 0.0507812 -6.128906 0.273438 -5.867188 0.453125 -5.671875 C 0.628906 -5.472656 0.921875 -5.226562 1.328125 -4.9375 C 1.742188 -4.65625 2.132812 -4.472656 2.5 -4.390625 C 2.875 -4.316406 3.335938 -4.351562 3.890625 -4.5 C 4.453125 -4.644531 5.007812 -4.941406 5.5625 -5.390625 C 7.707031 -7.117188 7.859375 -9.125 6.015625 -11.40625 L 0.0625 -18.765625 Z M 0.796875 -19.375 "/></g></g></g><g fill="#0a5732" fill-opacity="1"><g transform="translate(272.398757, 270.572394)"><g><path d="M -0.15625 -15.953125 C 0.882812 -15.015625 1.332031 -13.914062 1.1875 -12.65625 C 1.039062 -11.40625 0.375 -10.117188 -0.8125 -8.796875 L -2.078125 -7.390625 L 2.75 -3.0625 L 1.328125 -1.46875 L -9.5 -11.203125 L -6.34375 -14.71875 C -5.351562 -15.820312 -4.289062 -16.5 -3.15625 -16.75 C -2.03125 -17.007812 -1.03125 -16.742188 -0.15625 -15.953125 Z M -2.546875 -7.828125 L -1.234375 -9.28125 C -0.773438 -9.789062 -0.476562 -10.316406 -0.34375 -10.859375 C -0.21875 -11.398438 -0.234375 -11.890625 -0.390625 -12.328125 C -0.679688 -13.117188 -1.082031 -13.742188 -1.59375 -14.203125 C -1.84375 -14.421875 -2.195312 -14.617188 -2.65625 -14.796875 C -3.601562 -15.191406 -4.554688 -15.078125 -5.515625 -14.453125 C -6.210938 -13.671875 -6.773438 -12.859375 -7.203125 -12.015625 Z M -2.546875 -7.828125 "/></g></g></g><g fill="#0a5732" fill-opacity="1"><g transform="translate(78.001843, 205.01471)"><g><path d="M -0.15625 -0.953125 C -0.132812 -0.796875 -0.203125 -0.703125 -0.359375 -0.671875 C -0.523438 -0.648438 -0.617188 -0.71875 -0.640625 -0.875 L -0.828125 -1.984375 C -0.859375 -2.148438 -0.945312 -2.21875 -1.09375 -2.1875 L -10.734375 -0.59375 C -10.890625 -0.5625 -10.953125 -0.460938 -10.921875 -0.296875 L -10.734375 0.8125 C -10.710938 0.96875 -10.78125 1.054688 -10.9375 1.078125 C -11.09375 1.109375 -11.179688 1.046875 -11.203125 0.890625 L -12.453125 -6.625 C -12.484375 -6.769531 -12.414062 -6.859375 -12.25 -6.890625 L -10.046875 -7.25 C -9.898438 -7.28125 -9.8125 -7.21875 -9.78125 -7.0625 C -9.757812 -6.914062 -9.820312 -6.828125 -9.96875 -6.796875 L -11.71875 -6.515625 C -11.875 -6.484375 -11.9375 -6.382812 -11.90625 -6.21875 L -11.078125 -1.25 C -11.054688 -1.09375 -10.96875 -1.03125 -10.8125 -1.0625 L -6.546875 -1.765625 C -6.390625 -1.796875 -6.320312 -1.890625 -6.34375 -2.046875 L -6.9375 -5.59375 C -6.957031 -5.75 -7.046875 -5.8125 -7.203125 -5.78125 L -7.984375 -5.65625 C -8.148438 -5.625 -8.242188 -5.6875 -8.265625 -5.84375 C -8.296875 -6.007812 -8.226562 -6.109375 -8.0625 -6.140625 L -5.546875 -6.5625 C -5.378906 -6.582031 -5.28125 -6.507812 -5.25 -6.34375 C -5.226562 -6.1875 -5.300781 -6.097656 -5.46875 -6.078125 L -6.25 -5.9375 C -6.40625 -5.914062 -6.472656 -5.828125 -6.453125 -5.671875 L -5.859375 -2.125 C -5.835938 -1.96875 -5.75 -1.898438 -5.59375 -1.921875 L -1.171875 -2.65625 C -1.023438 -2.6875 -0.960938 -2.78125 -0.984375 -2.9375 L -1.84375 -8.0625 C -1.863281 -8.226562 -1.945312 -8.296875 -2.09375 -8.265625 L -3.84375 -7.984375 C -4 -7.953125 -4.085938 -8.007812 -4.109375 -8.15625 C -4.140625 -8.3125 -4.078125 -8.40625 -3.921875 -8.4375 L -1.703125 -8.8125 C -1.546875 -8.832031 -1.457031 -8.765625 -1.4375 -8.609375 Z M -0.15625 -0.953125 "/></g></g></g><g fill="#0a5732" fill-opacity="1"><g transform="translate(76.153388, 192.722066)"><g><path d="M -1.203125 -2.625 C -0.609375 -3.519531 -0.3125 -4.503906 -0.3125 -5.578125 C -0.3125 -6.648438 -0.550781 -7.476562 -1.03125 -8.0625 C -1.507812 -8.65625 -2.125 -8.953125 -2.875 -8.953125 C -3.289062 -8.953125 -3.65625 -8.828125 -3.96875 -8.578125 C -4.28125 -8.316406 -4.519531 -7.992188 -4.6875 -7.609375 C -4.875 -7.179688 -5.132812 -6.351562 -5.46875 -5.125 C -5.8125 -3.90625 -6.097656 -3.0625 -6.328125 -2.59375 C -6.554688 -2.132812 -6.847656 -1.773438 -7.203125 -1.515625 C -7.554688 -1.253906 -7.960938 -1.125 -8.421875 -1.125 C -9.316406 -1.125 -10.03125 -1.414062 -10.5625 -2 C -11.09375 -2.582031 -11.359375 -3.515625 -11.359375 -4.796875 C -11.359375 -6.066406 -10.90625 -7.234375 -10 -8.296875 C -9.863281 -8.472656 -9.914062 -8.5625 -10.15625 -8.5625 L -10.953125 -8.5625 C -11.117188 -8.5625 -11.203125 -8.640625 -11.203125 -8.796875 C -11.203125 -8.960938 -11.117188 -9.046875 -10.953125 -9.046875 L -7.921875 -9.046875 C -7.765625 -9.046875 -7.6875 -8.960938 -7.6875 -8.796875 C -7.6875 -8.640625 -7.765625 -8.5625 -7.921875 -8.5625 L -9.046875 -8.5625 C -9.710938 -7.976562 -10.226562 -7.25 -10.59375 -6.375 C -10.78125 -5.894531 -10.875 -5.367188 -10.875 -4.796875 C -10.875 -3.710938 -10.648438 -2.90625 -10.203125 -2.375 C -9.753906 -1.851562 -9.207031 -1.59375 -8.5625 -1.59375 C -8.144531 -1.59375 -7.78125 -1.722656 -7.46875 -1.984375 C -7.164062 -2.242188 -6.925781 -2.5625 -6.75 -2.9375 C -6.5625 -3.363281 -6.296875 -4.191406 -5.953125 -5.421875 C -5.617188 -6.648438 -5.335938 -7.492188 -5.109375 -7.953125 C -4.878906 -8.421875 -4.585938 -8.785156 -4.234375 -9.046875 C -3.890625 -9.304688 -3.46875 -9.4375 -2.96875 -9.4375 C -2.007812 -9.4375 -1.25 -9.097656 -0.6875 -8.421875 C -0.125 -7.753906 0.15625 -6.757812 0.15625 -5.4375 C 0.15625 -4.113281 -0.296875 -2.921875 -1.203125 -1.859375 C -1.335938 -1.679688 -1.285156 -1.59375 -1.046875 -1.59375 L -0.234375 -1.59375 C -0.078125 -1.59375 0 -1.515625 0 -1.359375 C 0 -1.203125 -0.078125 -1.125 -0.234375 -1.125 L -3.28125 -1.125 C -3.4375 -1.125 -3.515625 -1.203125 -3.515625 -1.359375 C -3.515625 -1.515625 -3.4375 -1.59375 -3.28125 -1.59375 L -2.078125 -1.59375 C -1.742188 -1.882812 -1.453125 -2.226562 -1.203125 -2.625 Z M -1.203125 -2.625 "/></g></g></g><g fill="#0a5732" fill-opacity="1"><g transform="translate(76.380744, 179.801638)"><g><path d="M -8.46875 -1.84375 L -10.75 -2.21875 C -10.90625 -2.238281 -10.96875 -2.320312 -10.9375 -2.46875 L -9.53125 -11 C -9.5 -11.15625 -9.40625 -11.222656 -9.25 -11.203125 L -6.96875 -10.828125 C -6.8125 -10.796875 -6.742188 -10.703125 -6.765625 -10.546875 C -6.796875 -10.390625 -6.890625 -10.328125 -7.046875 -10.359375 L -8.859375 -10.65625 C -9.015625 -10.675781 -9.109375 -10.601562 -9.140625 -10.4375 L -9.6875 -7.125 C -9.707031 -6.96875 -9.640625 -6.878906 -9.484375 -6.859375 L 0.15625 -5.265625 C 0.300781 -5.234375 0.382812 -5.296875 0.40625 -5.453125 L 0.59375 -6.5625 C 0.613281 -6.71875 0.703125 -6.78125 0.859375 -6.75 C 1.023438 -6.726562 1.097656 -6.640625 1.078125 -6.484375 L 0.546875 -3.328125 C 0.523438 -3.171875 0.429688 -3.101562 0.265625 -3.125 C 0.109375 -3.15625 0.0390625 -3.25 0.0625 -3.40625 L 0.25 -4.515625 C 0.28125 -4.671875 0.222656 -4.765625 0.078125 -4.796875 L -9.5625 -6.390625 C -9.71875 -6.410156 -9.8125 -6.34375 -9.84375 -6.1875 L -10.390625 -2.875 C -10.421875 -2.707031 -10.359375 -2.613281 -10.203125 -2.59375 L -8.390625 -2.296875 C -8.234375 -2.265625 -8.164062 -2.171875 -8.1875 -2.015625 C -8.21875 -1.867188 -8.3125 -1.8125 -8.46875 -1.84375 Z M -8.46875 -1.84375 "/></g></g></g><g fill="#0a5732" fill-opacity="1"><g transform="translate(296.696168, 159.456169)"><g><path d="M 12.1875 1.890625 C 12.457031 2.984375 12.382812 3.925781 11.96875 4.71875 C 11.53125 5.507812 10.945312 5.992188 10.21875 6.171875 C 9.5 6.359375 8.8125 6.28125 8.15625 5.9375 C 7.5 5.601562 6.890625 5.144531 6.328125 4.5625 L 4.734375 2.859375 C 4.222656 2.285156 3.675781 1.816406 3.09375 1.453125 C 2.507812 1.097656 1.957031 0.984375 1.4375 1.109375 L 1.046875 1.21875 C 0.890625 1.25 0.832031 1.347656 0.875 1.515625 L 2.359375 7.40625 C 2.398438 7.5625 2.5 7.625 2.65625 7.59375 L 4.359375 7.15625 C 4.515625 7.125 4.613281 7.179688 4.65625 7.328125 C 4.6875 7.492188 4.625 7.59375 4.46875 7.625 L 2.296875 8.171875 C 2.140625 8.210938 2.046875 8.148438 2.015625 7.984375 L 0.296875 1.171875 C 0.253906 1.003906 0.3125 0.898438 0.46875 0.859375 L 1.328125 0.640625 C 2.148438 0.429688 3.066406 0.734375 4.078125 1.546875 C 4.378906 1.773438 4.660156 2.03125 4.921875 2.3125 L 6.53125 4.03125 C 7.050781 4.601562 7.613281 5.066406 8.21875 5.421875 C 8.832031 5.773438 9.453125 5.875 10.078125 5.71875 C 10.703125 5.5625 11.1875 5.140625 11.53125 4.453125 C 11.894531 3.765625 11.957031 2.945312 11.71875 2 C 11.5625 1.375 11.285156 0.789062 10.890625 0.25 C 10.503906 -0.28125 10.023438 -0.710938 9.453125 -1.046875 C 9.316406 -1.117188 9.273438 -1.207031 9.328125 -1.3125 C 9.390625 -1.425781 9.441406 -1.488281 9.484375 -1.5 C 9.535156 -1.519531 9.609375 -1.503906 9.703125 -1.453125 C 10.992188 -0.648438 11.820312 0.460938 12.1875 1.890625 Z M 12.1875 1.890625 "/></g></g></g><g fill="#0a5732" fill-opacity="1"><g transform="translate(299.478933, 171.247263)"><g><path d="M 1.515625 2.078125 C 2.460938 1.191406 3.835938 0.675781 5.640625 0.53125 C 7.453125 0.394531 8.894531 0.6875 9.96875 1.40625 C 11.050781 2.132812 11.640625 3.109375 11.734375 4.328125 C 11.835938 5.546875 11.410156 6.59375 10.453125 7.46875 C 9.503906 8.34375 8.125 8.847656 6.3125 8.984375 C 4.507812 9.128906 3.070312 8.84375 2 8.125 C 0.9375 7.414062 0.351562 6.453125 0.25 5.234375 C 0.15625 4.015625 0.578125 2.960938 1.515625 2.078125 Z M 9.65625 1.78125 C 8.675781 1.144531 7.351562 0.890625 5.6875 1.015625 C 4.019531 1.148438 2.753906 1.609375 1.890625 2.390625 C 1.023438 3.179688 0.632812 4.109375 0.71875 5.171875 C 0.800781 6.242188 1.332031 7.097656 2.3125 7.734375 C 3.289062 8.378906 4.613281 8.632812 6.28125 8.5 C 7.945312 8.375 9.210938 7.914062 10.078125 7.125 C 10.941406 6.34375 11.332031 5.414062 11.25 4.34375 C 11.164062 3.28125 10.632812 2.425781 9.65625 1.78125 Z M 9.65625 1.78125 "/></g></g></g><g fill="#0a5732" fill-opacity="1"><g transform="translate(300.253692, 184.277617)"><g><path d="M 10.890625 5.78125 C 10.785156 6.90625 10.40625 7.769531 9.75 8.375 C 9.082031 8.988281 8.375 9.257812 7.625 9.1875 C 6.882812 9.125 6.257812 8.828125 5.75 8.296875 C 5.238281 7.765625 4.816406 7.132812 4.484375 6.40625 L 3.546875 4.265625 C 3.242188 3.546875 2.878906 2.921875 2.453125 2.390625 C 2.023438 1.867188 1.539062 1.582031 1 1.53125 L 0.59375 1.5 C 0.4375 1.488281 0.347656 1.566406 0.328125 1.734375 L -0.203125 7.78125 C -0.210938 7.9375 -0.140625 8.019531 0.015625 8.03125 L 1.765625 8.1875 C 1.921875 8.195312 1.992188 8.28125 1.984375 8.4375 C 1.960938 8.601562 1.875 8.679688 1.71875 8.671875 L -0.515625 8.46875 C -0.671875 8.457031 -0.738281 8.367188 -0.71875 8.203125 L -0.109375 1.203125 C -0.0859375 1.035156 0 0.957031 0.15625 0.96875 L 1.046875 1.046875 C 1.890625 1.128906 2.65625 1.710938 3.34375 2.796875 C 3.550781 3.109375 3.734375 3.445312 3.890625 3.8125 L 4.84375 5.953125 C 5.144531 6.660156 5.523438 7.28125 5.984375 7.8125 C 6.441406 8.351562 6.992188 8.648438 7.640625 8.703125 C 8.285156 8.765625 8.882812 8.53125 9.4375 8 C 10 7.457031 10.320312 6.703125 10.40625 5.734375 C 10.457031 5.085938 10.390625 4.445312 10.203125 3.8125 C 10.015625 3.1875 9.707031 2.625 9.28125 2.125 C 9.175781 2 9.164062 1.894531 9.25 1.8125 C 9.34375 1.738281 9.414062 1.703125 9.46875 1.703125 C 9.519531 1.710938 9.582031 1.75 9.65625 1.8125 C 10.601562 2.988281 11.015625 4.3125 10.890625 5.78125 Z M 10.890625 5.78125 "/></g></g></g><g fill="#0a5732" fill-opacity="1"><g transform="translate(298.961868, 196.353243)"><g><path d="M 2.671875 0.9375 C 2.703125 0.925781 2.738281 0.925781 2.78125 0.9375 C 2.820312 0.945312 2.875 0.972656 2.9375 1.015625 C 4.070312 2.296875 4.816406 3.09375 5.171875 3.40625 C 6.453125 4.570312 8.160156 5.425781 10.296875 5.96875 C 10.453125 6.007812 10.507812 6.109375 10.46875 6.265625 C 10.425781 6.421875 10.328125 6.476562 10.171875 6.4375 C 8.347656 5.957031 6.898438 5.3125 5.828125 4.5 C 5.265625 4.082031 4.789062 3.691406 4.40625 3.328125 C 4.019531 2.960938 3.570312 2.476562 3.0625 1.875 C 2.9375 1.75 2.851562 1.785156 2.8125 1.984375 L 1.5 7.109375 C 1.46875 7.265625 1.523438 7.363281 1.671875 7.40625 L 6.109375 8.53125 C 6.265625 8.570312 6.320312 8.671875 6.28125 8.828125 C 6.238281 8.984375 6.140625 9.039062 5.984375 9 L 1.546875 7.875 C 1.398438 7.832031 1.304688 7.882812 1.265625 8.03125 L 0.953125 9.28125 C 0.910156 9.4375 0.8125 9.492188 0.65625 9.453125 C 0.5 9.421875 0.441406 9.328125 0.484375 9.171875 L 0.796875 7.921875 C 0.835938 7.773438 0.78125 7.679688 0.625 7.640625 L -1.703125 7.046875 C -1.859375 7.015625 -1.914062 6.921875 -1.875 6.765625 C -1.832031 6.609375 -1.734375 6.546875 -1.578125 6.578125 L 0.75 7.171875 C 0.90625 7.210938 1 7.15625 1.03125 7 L 2.53125 1.109375 C 2.550781 1.003906 2.597656 0.945312 2.671875 0.9375 Z M 2.671875 0.9375 "/></g></g></g></svg>